<svg id="svg" version="1.1" xmlns="http://www.w3.org/2000/svg" xmlns:xlink="http://www.w3.org/1999/xlink" width="400" height="400" viewBox="0, 0, 400,400"><g id="svgg"><path id="path0" d="M108.000 140.600 C 108.000 140.930,108.180 141.200,108.400 141.200 C 108.620 141.200,108.800 141.436,108.800 141.725 C 108.800 142.013,109.115 142.607,109.500 143.045 C 109.885 143.483,110.425 144.237,110.700 144.720 C 110.975 145.204,111.425 145.996,111.700 146.480 C 111.975 146.963,112.515 147.717,112.900 148.155 C 113.285 148.593,113.600 149.187,113.600 149.475 C 113.600 149.764,113.780 150.000,114.000 150.000 C 114.220 150.000,114.400 150.188,114.400 150.418 C 114.400 150.648,115.300 152.170,116.400 153.800 C 117.500 155.430,118.400 156.869,118.400 156.998 C 118.400 157.127,118.739 157.720,119.154 158.316 C 120.340 160.023,124.446 166.470,125.222 167.845 C 125.609 168.530,126.165 169.475,126.459 169.945 L 126.992 170.800 199.996 170.795 L 273.000 170.790 273.900 169.401 C 274.395 168.636,274.800 167.911,274.800 167.789 C 274.800 167.667,275.160 167.180,275.600 166.708 C 276.040 166.236,276.400 165.613,276.400 165.325 C 276.400 165.036,276.580 164.800,276.800 164.800 C 277.020 164.800,277.200 164.641,277.200 164.447 C 277.200 164.087,278.961 161.167,283.223 154.460 C 284.530 152.403,285.600 150.640,285.600 150.543 C 285.600 150.446,285.960 149.980,286.400 149.508 C 286.840 149.036,287.200 148.413,287.200 148.125 C 287.200 147.836,287.380 147.600,287.600 147.600 C 287.820 147.600,288.000 147.364,288.000 147.075 C 288.000 146.787,288.315 146.194,288.700 145.758 C 289.588 144.753,290.783 142.809,291.071 141.900 C 291.193 141.515,291.452 141.200,291.647 141.200 C 291.841 141.200,292.000 140.930,292.000 140.600 C 292.000 140.068,281.511 140.000,200.000 140.000 C 118.489 140.000,108.000 140.068,108.000 140.600 " stroke="none" fill="#bde8b3" fill-rule="evenodd"></path><path id="path1" d="M133.200 181.072 C 133.200 181.338,134.753 183.862,138.260 189.295 C 139.217 190.778,140.000 192.065,140.000 192.155 C 140.000 192.296,144.463 199.436,147.404 204.000 C 149.169 206.740,153.313 213.422,154.082 214.769 C 154.512 215.522,155.569 217.177,156.432 218.447 C 157.294 219.717,158.000 220.858,158.000 220.983 C 158.000 221.108,158.791 222.422,159.757 223.905 C 161.335 226.326,168.982 238.515,171.000 241.827 C 174.434 247.462,175.619 249.369,177.290 251.951 L 179.200 254.903 179.200 270.608 L 179.200 286.313 185.300 289.631 C 188.655 291.455,192.030 293.303,192.800 293.736 C 193.570 294.169,195.100 295.008,196.200 295.601 C 197.300 296.193,199.055 297.155,200.100 297.739 C 201.145 298.322,202.855 299.277,203.900 299.861 C 204.945 300.445,206.970 301.553,208.400 302.324 C 209.830 303.096,212.868 304.778,215.150 306.063 C 217.433 307.349,219.548 308.400,219.850 308.400 C 220.311 308.400,220.400 304.086,220.400 281.760 L 220.400 255.121 221.900 252.660 C 222.725 251.307,223.535 250.140,223.700 250.067 C 223.865 249.993,224.000 249.758,224.000 249.545 C 224.000 249.331,224.720 248.096,225.600 246.800 C 226.480 245.504,227.200 244.254,227.200 244.022 C 227.200 243.790,227.380 243.600,227.600 243.600 C 227.820 243.600,228.000 243.412,228.000 243.182 C 228.000 242.952,228.855 241.462,229.900 239.871 C 230.945 238.279,232.012 236.622,232.271 236.189 C 233.482 234.159,238.028 226.957,240.670 222.880 C 242.282 220.394,243.600 218.277,243.600 218.176 C 243.600 218.075,244.565 216.509,245.743 214.696 C 246.922 212.883,248.961 209.690,250.274 207.600 C 251.588 205.510,254.178 201.419,256.031 198.508 C 257.884 195.598,259.580 192.887,259.800 192.483 C 260.020 192.080,261.173 190.231,262.363 188.375 C 263.553 186.519,265.130 184.055,265.867 182.900 L 267.208 180.800 200.204 180.800 C 163.352 180.800,133.200 180.922,133.200 181.072 " stroke="none" fill="#e38b64" fill-rule="evenodd"></path><path id="path2" d="M220.000 14.000 C 220.000 14.220,219.100 14.400,218.000 14.400 C 216.900 14.400,216.000 14.580,216.000 14.800 C 216.000 15.020,215.460 15.200,214.800 15.200 C 214.140 15.200,213.600 15.380,213.600 15.600 C 213.600 15.820,213.150 16.000,212.600 16.000 C 212.050 16.000,211.600 16.180,211.600 16.400 C 211.600 16.620,211.240 16.800,210.800 16.800 C 210.360 16.800,210.000 16.958,210.000 17.151 C 210.000 17.345,209.460 17.727,208.800 18.000 C 208.140 18.273,207.600 18.625,207.600 18.781 C 207.600 18.937,207.105 19.320,206.500 19.632 C 205.330 20.236,200.800 24.629,200.800 25.160 C 200.800 25.334,200.362 25.985,199.827 26.608 C 198.934 27.647,197.539 30.224,196.799 32.200 C 196.634 32.640,196.297 33.503,196.050 34.119 C 195.802 34.734,195.600 35.849,195.600 36.595 C 195.600 37.342,195.420 38.064,195.200 38.200 C 194.971 38.341,194.800 40.396,194.800 43.000 C 194.800 45.604,194.971 47.659,195.200 47.800 C 195.420 47.936,195.600 48.746,195.600 49.600 C 195.600 50.454,195.780 51.264,196.000 51.400 C 196.220 51.536,196.400 52.087,196.400 52.624 C 196.400 53.161,196.580 53.600,196.800 53.600 C 197.020 53.600,197.200 53.924,197.200 54.320 C 197.200 55.214,198.094 57.193,198.500 57.197 C 198.665 57.199,198.800 57.470,198.800 57.800 C 198.800 58.130,198.980 58.400,199.200 58.400 C 199.420 58.400,199.600 58.630,199.600 58.912 C 199.600 59.193,199.960 59.683,200.400 60.000 C 200.840 60.317,201.200 60.822,201.200 61.123 C 201.200 61.772,205.505 66.000,206.165 66.000 C 206.417 66.000,206.883 66.360,207.200 66.800 C 207.517 67.240,208.014 67.600,208.305 67.600 C 208.596 67.600,209.220 67.960,209.692 68.400 C 210.164 68.840,210.877 69.200,211.275 69.200 C 211.674 69.200,212.000 69.380,212.000 69.600 C 212.000 69.820,212.272 70.000,212.605 70.000 C 212.938 70.000,213.523 70.158,213.905 70.351 C 215.354 71.083,217.517 71.600,219.128 71.600 C 220.048 71.600,220.800 71.780,220.800 72.000 C 220.800 72.233,222.125 72.400,223.976 72.400 C 225.723 72.400,227.264 72.220,227.400 72.000 C 227.536 71.780,228.537 71.600,229.624 71.600 C 230.711 71.600,231.600 71.420,231.600 71.200 C 231.600 70.980,232.129 70.800,232.776 70.800 C 233.423 70.800,234.064 70.620,234.200 70.400 C 234.336 70.180,234.872 70.000,235.390 70.000 C 235.909 70.000,236.393 69.865,236.467 69.700 C 236.540 69.535,237.455 68.967,238.500 68.437 C 239.545 67.908,240.400 67.323,240.400 67.137 C 240.400 66.952,240.583 66.800,240.806 66.800 C 241.368 66.800,248.000 60.119,248.000 59.553 C 248.000 59.300,248.315 58.803,248.700 58.447 C 249.630 57.588,251.200 54.520,251.200 53.562 C 251.200 53.143,251.380 52.800,251.600 52.800 C 251.820 52.800,252.000 52.271,252.000 51.624 C 252.000 50.977,252.180 50.336,252.400 50.200 C 252.620 50.064,252.800 48.613,252.800 46.976 C 252.800 45.259,252.969 44.000,253.200 44.000 C 253.420 44.000,253.600 43.471,253.600 42.824 C 253.600 42.177,253.420 41.536,253.200 41.400 C 252.980 41.264,252.800 39.903,252.800 38.376 C 252.800 36.792,252.628 35.600,252.400 35.600 C 252.180 35.600,252.000 35.060,252.000 34.400 C 252.000 33.740,251.820 33.200,251.600 33.200 C 251.380 33.200,251.200 32.761,251.200 32.224 C 251.200 31.687,251.020 31.136,250.800 31.000 C 250.580 30.864,250.400 30.403,250.400 29.976 C 250.400 29.549,250.220 29.200,250.000 29.200 C 249.780 29.200,249.600 28.958,249.600 28.662 C 249.600 28.366,249.240 27.798,248.800 27.400 C 248.360 27.002,248.000 26.506,248.000 26.298 C 248.000 26.091,247.492 25.444,246.871 24.860 C 246.250 24.277,245.419 23.305,245.025 22.700 C 244.631 22.095,244.143 21.600,243.941 21.600 C 243.739 21.600,242.973 21.015,242.240 20.300 C 240.183 18.295,239.244 17.600,238.595 17.600 C 238.268 17.600,238.000 17.420,238.000 17.200 C 238.000 16.980,237.640 16.800,237.200 16.800 C 236.760 16.800,236.400 16.620,236.400 16.400 C 236.400 16.180,236.051 16.000,235.624 16.000 C 235.197 16.000,234.736 15.820,234.600 15.600 C 234.464 15.380,233.924 15.200,233.400 15.200 C 232.876 15.200,232.336 15.020,232.200 14.800 C 232.064 14.580,231.164 14.400,230.200 14.400 C 229.236 14.400,228.336 14.220,228.200 14.000 C 228.062 13.777,226.196 13.600,223.976 13.600 C 221.592 13.600,220.000 13.760,220.000 14.000 M229.600 24.593 C 237.257 26.691,243.200 34.770,243.200 43.080 C 243.200 60.101,221.558 68.549,210.074 56.011 C 196.976 41.713,210.816 19.444,229.600 24.593 M141.800 61.600 C 141.664 61.820,140.933 62.000,140.176 62.000 C 139.419 62.000,138.800 62.180,138.800 62.400 C 138.800 62.620,138.260 62.800,137.600 62.800 C 136.940 62.800,136.400 62.980,136.400 63.200 C 136.400 63.420,136.040 63.600,135.600 63.600 C 135.160 63.600,134.800 63.780,134.800 64.000 C 134.800 64.220,134.440 64.400,134.000 64.400 C 133.560 64.400,133.200 64.580,133.200 64.800 C 133.200 65.020,132.964 65.200,132.675 65.200 C 132.387 65.200,131.764 65.560,131.292 66.000 C 130.820 66.440,130.274 66.800,130.079 66.800 C 129.583 66.800,124.000 72.845,124.000 73.383 C 124.000 73.625,123.640 74.083,123.200 74.400 C 122.760 74.717,122.400 75.297,122.400 75.688 C 122.400 76.080,122.220 76.400,122.000 76.400 C 121.780 76.400,121.600 76.760,121.600 77.200 C 121.600 77.640,121.420 78.000,121.200 78.000 C 120.980 78.000,120.800 78.450,120.800 79.000 C 120.800 79.550,120.620 80.000,120.400 80.000 C 120.180 80.000,120.000 80.540,120.000 81.200 C 120.000 81.860,119.820 82.400,119.600 82.400 C 119.380 82.400,119.200 83.289,119.200 84.376 C 119.200 85.463,119.020 86.464,118.800 86.600 C 118.580 86.736,118.400 88.457,118.400 90.424 C 118.400 92.541,118.563 94.000,118.800 94.000 C 119.020 94.000,119.200 94.900,119.200 96.000 C 119.200 97.100,119.380 98.000,119.600 98.000 C 119.820 98.000,120.000 98.540,120.000 99.200 C 120.000 99.860,120.180 100.400,120.400 100.400 C 120.620 100.400,120.800 100.940,120.800 101.600 C 120.800 102.260,120.980 102.800,121.200 102.800 C 121.420 102.800,121.600 103.160,121.600 103.600 C 121.600 104.040,121.780 104.400,122.000 104.400 C 122.220 104.400,122.400 104.636,122.400 104.925 C 122.400 105.213,122.760 105.836,123.200 106.308 C 123.640 106.780,124.000 107.269,124.000 107.394 C 124.000 107.519,124.765 108.413,125.700 109.381 C 126.635 110.350,127.850 111.689,128.400 112.359 C 128.950 113.028,129.591 113.581,129.825 113.588 C 130.058 113.595,130.636 113.960,131.108 114.400 C 131.580 114.840,132.244 115.200,132.583 115.200 C 132.922 115.200,133.201 115.335,133.203 115.500 C 133.207 115.859,135.144 116.800,135.880 116.800 C 136.166 116.800,136.400 116.980,136.400 117.200 C 136.400 117.420,136.749 117.600,137.176 117.600 C 137.603 117.600,138.064 117.780,138.200 118.000 C 138.336 118.220,139.067 118.400,139.824 118.400 C 140.581 118.400,141.200 118.580,141.200 118.800 C 141.200 119.050,143.592 119.200,147.576 119.200 C 151.396 119.200,154.052 119.040,154.200 118.800 C 154.336 118.580,154.966 118.400,155.600 118.400 C 156.234 118.400,156.864 118.220,157.000 118.000 C 157.136 117.780,157.597 117.600,158.024 117.600 C 158.451 117.600,158.800 117.420,158.800 117.200 C 158.800 116.980,159.034 116.800,159.320 116.800 C 160.056 116.800,161.993 115.859,161.997 115.500 C 161.999 115.335,162.360 115.200,162.800 115.200 C 163.240 115.200,163.600 115.050,163.600 114.868 C 163.600 114.685,164.092 114.280,164.693 113.968 C 168.586 111.946,174.514 103.949,175.036 100.016 C 175.183 98.907,175.460 98.000,175.652 98.000 C 175.843 98.000,176.000 97.100,176.000 96.000 C 176.000 94.900,176.180 94.000,176.400 94.000 C 176.639 94.000,176.800 92.467,176.800 90.200 C 176.800 87.933,176.639 86.400,176.400 86.400 C 176.180 86.400,176.000 85.500,176.000 84.400 C 176.000 83.300,175.844 82.400,175.654 82.400 C 175.464 82.400,175.201 81.613,175.069 80.651 C 174.840 78.977,172.830 74.781,171.726 73.671 C 171.437 73.381,171.200 72.985,171.200 72.791 C 171.200 72.220,165.688 66.800,165.108 66.800 C 164.816 66.800,164.317 66.440,164.000 66.000 C 163.683 65.560,163.103 65.200,162.712 65.200 C 162.320 65.200,162.000 65.020,162.000 64.800 C 162.000 64.580,161.640 64.400,161.200 64.400 C 160.760 64.400,160.400 64.220,160.400 64.000 C 160.400 63.780,160.040 63.600,159.600 63.600 C 159.160 63.600,158.800 63.420,158.800 63.200 C 158.800 62.980,158.361 62.800,157.824 62.800 C 157.287 62.800,156.736 62.620,156.600 62.400 C 156.464 62.180,155.744 62.000,155.000 62.000 C 154.256 62.000,153.536 61.820,153.400 61.600 C 153.254 61.364,150.870 61.200,147.600 61.200 C 144.330 61.200,141.946 61.364,141.800 61.600 M152.000 71.634 C 163.633 74.313,170.041 87.372,165.037 98.202 C 160.846 107.273,149.839 111.942,141.200 108.313 C 140.650 108.082,139.750 107.701,139.200 107.467 C 137.111 106.576,133.872 103.761,132.250 101.426 C 122.187 86.941,134.939 67.705,152.000 71.634 M224.000 105.600 C 224.000 105.820,223.280 106.000,222.400 106.000 C 221.520 106.000,220.800 106.180,220.800 106.400 C 220.800 106.620,220.451 106.800,220.024 106.800 C 219.597 106.800,219.136 106.980,219.000 107.200 C 218.864 107.420,218.437 107.600,218.052 107.600 C 217.666 107.600,216.964 107.960,216.492 108.400 C 216.020 108.840,215.356 109.200,215.017 109.200 C 214.678 109.200,214.400 109.380,214.400 109.600 C 214.400 109.820,214.108 110.000,213.752 110.000 C 213.068 110.000,206.800 116.169,206.800 116.841 C 206.800 117.057,206.440 117.620,206.000 118.092 C 205.560 118.564,205.200 119.187,205.200 119.475 C 205.200 119.764,205.020 120.000,204.800 120.000 C 204.580 120.000,204.400 120.360,204.400 120.800 C 204.400 121.240,204.220 121.600,204.000 121.600 C 203.780 121.600,203.600 122.140,203.600 122.800 C 203.600 123.460,203.420 124.000,203.200 124.000 C 202.980 124.000,202.800 124.540,202.800 125.200 C 202.800 125.860,202.620 126.400,202.400 126.400 C 202.180 126.400,202.000 127.210,202.000 128.200 L 202.000 130.000 148.858 130.000 L 95.717 130.000 94.658 130.981 C 94.060 131.535,93.600 132.395,93.600 132.957 C 93.600 133.505,93.420 134.064,93.200 134.200 C 92.980 134.336,92.800 134.887,92.800 135.424 C 92.800 135.961,92.980 136.400,93.200 136.400 C 93.420 136.400,93.600 136.897,93.600 137.505 C 93.600 138.521,96.099 142.824,96.868 143.133 C 97.051 143.207,97.200 143.612,97.200 144.033 C 97.200 144.455,97.380 144.800,97.600 144.800 C 97.820 144.800,98.000 145.036,98.000 145.325 C 98.000 145.613,98.360 146.236,98.800 146.708 C 99.240 147.180,99.600 147.804,99.600 148.095 C 99.600 148.386,99.960 148.883,100.400 149.200 C 100.840 149.517,101.200 150.097,101.200 150.488 C 101.200 150.880,101.380 151.200,101.600 151.200 C 101.820 151.200,102.000 151.470,102.000 151.800 C 102.000 152.130,102.180 152.400,102.400 152.400 C 102.620 152.400,102.800 152.670,102.800 153.000 C 102.800 153.330,102.980 153.600,103.200 153.600 C 103.420 153.600,103.600 153.836,103.600 154.125 C 103.600 154.413,103.915 154.998,104.300 155.425 C 104.685 155.851,105.269 156.740,105.597 157.400 C 105.926 158.060,106.511 158.891,106.897 159.247 C 107.284 159.603,107.600 160.148,107.600 160.459 C 107.600 160.769,107.960 161.283,108.400 161.600 C 108.840 161.917,109.200 162.497,109.200 162.888 C 109.200 163.280,109.366 163.600,109.568 163.600 C 109.771 163.600,110.055 164.140,110.200 164.800 C 110.345 165.460,110.617 166.000,110.805 166.000 C 110.993 166.000,111.260 166.359,111.399 166.798 C 111.538 167.236,111.866 167.827,112.126 168.110 C 112.792 168.833,114.007 170.866,114.271 171.700 C 114.393 172.085,114.652 172.400,114.847 172.400 C 115.041 172.400,115.200 172.670,115.200 173.000 C 115.200 173.330,115.380 173.600,115.600 173.600 C 115.820 173.600,116.000 173.870,116.000 174.200 C 116.000 174.530,116.180 174.800,116.400 174.800 C 116.620 174.800,116.800 175.070,116.800 175.400 C 116.800 175.730,116.980 176.000,117.200 176.000 C 117.420 176.000,117.600 176.236,117.600 176.525 C 117.600 176.813,117.960 177.436,118.400 177.908 C 118.840 178.380,119.200 179.004,119.200 179.295 C 119.200 179.586,119.560 180.083,120.000 180.400 C 120.440 180.717,120.800 181.297,120.800 181.688 C 120.800 182.080,120.980 182.400,121.200 182.400 C 121.420 182.400,121.600 182.670,121.600 183.000 C 121.600 183.330,121.780 183.600,122.000 183.600 C 122.220 183.600,122.400 183.870,122.400 184.200 C 122.400 184.530,122.580 184.800,122.800 184.800 C 123.020 184.800,123.200 185.120,123.200 185.512 C 123.200 185.903,123.560 186.483,124.000 186.800 C 124.440 187.117,124.800 187.697,124.800 188.088 C 124.800 188.480,124.980 188.800,125.200 188.800 C 125.420 188.800,125.600 189.070,125.600 189.400 C 125.600 189.730,125.780 190.000,126.000 190.000 C 126.220 190.000,126.400 190.270,126.400 190.600 C 126.400 190.930,126.580 191.200,126.800 191.200 C 127.020 191.200,127.200 191.457,127.200 191.771 C 127.200 192.086,127.425 192.586,127.700 192.884 C 128.386 193.626,129.602 195.651,129.871 196.500 C 129.993 196.885,130.252 197.200,130.447 197.200 C 130.641 197.200,130.800 197.436,130.800 197.725 C 130.800 198.013,131.160 198.636,131.600 199.108 C 132.040 199.580,132.400 200.162,132.400 200.400 C 132.400 200.638,132.760 201.220,133.200 201.692 C 133.640 202.164,134.000 202.787,134.000 203.075 C 134.000 203.364,134.180 203.600,134.400 203.600 C 134.620 203.600,134.800 203.836,134.800 204.125 C 134.800 204.413,135.115 204.998,135.500 205.425 C 135.885 205.851,136.454 206.692,136.764 207.293 C 137.074 207.895,137.659 208.742,138.064 209.177 C 138.469 209.611,138.800 210.204,138.800 210.495 C 138.800 210.786,139.160 211.283,139.600 211.600 C 140.040 211.917,140.400 212.497,140.400 212.888 C 140.400 213.280,140.580 213.600,140.800 213.600 C 141.020 213.600,141.200 213.870,141.200 214.200 C 141.200 214.530,141.380 214.800,141.600 214.800 C 141.820 214.800,142.000 215.070,142.000 215.400 C 142.000 215.730,142.180 216.000,142.400 216.000 C 142.620 216.000,142.800 216.360,142.800 216.800 C 142.800 217.240,142.968 217.600,143.173 217.600 C 143.378 217.600,143.674 218.005,143.830 218.500 C 143.987 218.995,144.989 220.697,146.057 222.282 C 147.126 223.867,148.000 225.270,148.000 225.399 C 148.000 225.528,148.360 226.020,148.800 226.492 C 149.240 226.964,149.600 227.587,149.600 227.875 C 149.600 228.164,149.780 228.400,150.000 228.400 C 150.220 228.400,150.400 228.636,150.400 228.925 C 150.400 229.213,150.760 229.836,151.200 230.308 C 151.640 230.780,152.000 231.362,152.000 231.600 C 152.000 231.838,152.360 232.420,152.800 232.892 C 153.240 233.364,153.600 233.987,153.600 234.275 C 153.600 234.564,153.780 234.800,154.000 234.800 C 154.220 234.800,154.400 235.036,154.400 235.325 C 154.400 235.613,154.760 236.236,155.200 236.708 C 155.640 237.180,156.000 237.762,156.000 238.000 C 156.000 238.238,156.360 238.820,156.800 239.292 C 157.240 239.764,157.600 240.387,157.600 240.675 C 157.600 240.964,157.780 241.200,158.000 241.200 C 158.220 241.200,158.400 241.430,158.400 241.712 C 158.400 241.993,158.760 242.483,159.200 242.800 C 159.640 243.117,160.000 243.624,160.000 243.927 C 160.000 244.537,161.137 246.703,161.874 247.495 C 162.134 247.775,162.462 248.364,162.601 248.802 C 162.740 249.241,163.022 249.600,163.227 249.600 C 163.432 249.600,163.600 249.836,163.600 250.125 C 163.600 250.413,163.960 251.036,164.400 251.508 C 164.840 251.980,165.200 252.644,165.200 252.983 C 165.200 253.322,165.380 253.600,165.600 253.600 C 165.820 253.600,166.000 253.870,166.000 254.200 C 166.000 254.530,166.180 254.800,166.400 254.800 C 166.620 254.800,166.800 255.070,166.800 255.400 C 166.800 255.730,166.980 256.000,167.200 256.000 C 167.420 256.000,167.600 256.236,167.600 256.525 C 167.600 256.813,167.960 257.436,168.400 257.908 C 169.173 258.738,169.200 259.319,169.200 275.183 C 169.200 285.861,169.340 291.600,169.600 291.600 C 169.820 291.600,170.000 291.960,170.000 292.400 C 170.000 292.854,170.267 293.200,170.617 293.200 C 170.956 293.200,171.620 293.560,172.092 294.000 C 172.564 294.440,173.187 294.800,173.475 294.800 C 173.764 294.800,174.000 294.980,174.000 295.200 C 174.000 295.420,174.360 295.600,174.800 295.600 C 175.240 295.600,175.600 295.780,175.600 296.000 C 175.600 296.220,175.960 296.400,176.400 296.400 C 176.840 296.400,177.200 296.580,177.200 296.800 C 177.200 297.020,177.470 297.200,177.800 297.200 C 178.130 297.200,178.401 297.335,178.403 297.500 C 178.405 297.665,178.810 297.998,179.303 298.240 C 181.711 299.422,183.813 300.630,183.933 300.900 C 184.007 301.065,184.412 301.200,184.833 301.200 C 185.255 301.200,185.600 301.380,185.600 301.600 C 185.600 301.820,185.960 302.000,186.400 302.000 C 186.840 302.000,187.200 302.145,187.200 302.321 C 187.200 302.498,188.097 303.083,189.194 303.621 C 190.290 304.160,191.190 304.735,191.194 304.900 C 191.197 305.065,191.560 305.200,192.000 305.200 C 192.440 305.200,192.800 305.336,192.800 305.502 C 192.800 305.669,193.385 306.059,194.100 306.369 C 194.815 306.680,196.027 307.354,196.793 307.867 C 197.559 308.380,198.504 308.800,198.893 308.800 C 199.282 308.800,199.600 308.980,199.600 309.200 C 199.600 309.420,199.960 309.600,200.400 309.600 C 200.840 309.600,201.200 309.780,201.200 310.000 C 201.200 310.220,201.478 310.400,201.817 310.400 C 202.156 310.400,202.820 310.760,203.292 311.200 C 203.764 311.640,204.387 312.000,204.675 312.000 C 204.964 312.000,205.200 312.180,205.200 312.400 C 205.200 312.620,205.560 312.800,206.000 312.800 C 206.440 312.800,206.800 312.980,206.800 313.200 C 206.800 313.420,207.160 313.600,207.600 313.600 C 208.040 313.600,208.400 313.780,208.400 314.000 C 208.400 314.220,208.760 314.400,209.200 314.400 C 209.640 314.400,210.000 314.580,210.000 314.800 C 210.000 315.020,210.270 315.200,210.600 315.200 C 210.930 315.200,211.200 315.380,211.200 315.600 C 211.200 315.820,211.470 316.000,211.800 316.000 C 212.130 316.000,212.400 316.146,212.400 316.325 C 212.400 316.504,213.030 316.898,213.800 317.200 C 214.570 317.502,215.200 317.896,215.200 318.075 C 215.200 318.254,215.560 318.400,216.000 318.400 C 216.440 318.400,216.800 318.580,216.800 318.800 C 216.800 319.020,217.160 319.200,217.600 319.200 C 218.040 319.200,218.400 319.345,218.400 319.521 C 218.400 319.698,219.297 320.283,220.394 320.821 C 221.490 321.360,222.390 321.935,222.394 322.100 C 222.417 323.206,229.190 322.011,229.197 320.900 C 229.199 320.625,229.380 320.400,229.600 320.400 C 229.863 320.400,230.000 309.800,230.000 289.400 C 230.000 272.350,230.150 258.400,230.332 258.400 C 230.515 258.400,230.920 257.905,231.232 257.300 C 231.545 256.695,232.115 255.851,232.500 255.425 C 232.885 254.998,233.200 254.413,233.200 254.125 C 233.200 253.836,233.380 253.600,233.600 253.600 C 233.820 253.600,234.000 253.364,234.000 253.075 C 234.000 252.787,234.360 252.164,234.800 251.692 C 235.240 251.220,235.600 250.638,235.600 250.400 C 235.600 250.162,235.960 249.580,236.400 249.108 C 236.840 248.636,237.200 248.013,237.200 247.725 C 237.200 247.436,237.358 247.200,237.551 247.200 C 237.745 247.200,238.127 246.660,238.400 246.000 C 238.673 245.340,239.055 244.800,239.249 244.800 C 239.442 244.800,239.600 244.522,239.600 244.183 C 239.600 243.844,239.967 243.173,240.415 242.691 C 240.864 242.210,241.334 241.407,241.459 240.908 C 241.584 240.409,241.847 240.000,242.043 240.000 C 242.240 240.000,242.400 239.730,242.400 239.400 C 242.400 239.070,242.580 238.800,242.800 238.800 C 243.020 238.800,243.200 238.480,243.200 238.088 C 243.200 237.697,243.560 237.117,244.000 236.800 C 244.440 236.483,244.800 235.943,244.800 235.600 C 244.800 235.257,245.160 234.717,245.600 234.400 C 246.040 234.083,246.400 233.503,246.400 233.112 C 246.400 232.720,246.580 232.400,246.800 232.400 C 247.020 232.400,247.200 232.164,247.200 231.875 C 247.200 231.587,247.560 230.964,248.000 230.492 C 248.440 230.020,248.800 229.396,248.800 229.105 C 248.800 228.814,249.160 228.317,249.600 228.000 C 250.040 227.683,250.400 227.186,250.400 226.895 C 250.400 226.604,250.731 226.011,251.136 225.577 C 251.541 225.142,252.126 224.295,252.436 223.693 C 252.746 223.092,253.315 222.251,253.700 221.825 C 254.085 221.398,254.400 220.813,254.400 220.525 C 254.400 220.236,254.559 220.000,254.753 220.000 C 254.948 220.000,255.207 219.685,255.329 219.300 C 255.607 218.423,256.823 216.414,257.547 215.636 C 257.848 215.313,258.271 214.543,258.486 213.924 C 258.702 213.306,259.041 212.800,259.239 212.800 C 259.438 212.800,259.600 212.440,259.600 212.000 C 259.600 211.560,259.780 211.200,260.000 211.200 C 260.220 211.200,260.400 210.964,260.400 210.675 C 260.400 210.387,260.760 209.764,261.200 209.292 C 261.640 208.820,262.000 208.246,262.000 208.017 C 262.000 207.788,262.180 207.600,262.400 207.600 C 262.620 207.600,262.800 207.330,262.800 207.000 C 262.800 206.670,262.980 206.400,263.200 206.400 C 263.420 206.400,263.600 206.130,263.600 205.800 C 263.600 205.470,263.780 205.200,264.000 205.200 C 264.220 205.200,264.400 204.964,264.400 204.675 C 264.400 204.387,264.760 203.764,265.200 203.292 C 265.640 202.820,266.000 202.196,266.000 201.905 C 266.000 201.614,266.360 201.117,266.800 200.800 C 267.240 200.483,267.600 199.903,267.600 199.512 C 267.600 199.120,267.758 198.800,267.951 198.800 C 268.145 198.800,268.527 198.260,268.800 197.600 C 269.073 196.940,269.455 196.400,269.649 196.400 C 269.842 196.400,270.000 196.080,270.000 195.688 C 270.000 195.297,270.360 194.717,270.800 194.400 C 271.240 194.083,271.600 193.518,271.600 193.145 C 271.600 192.772,271.735 192.407,271.900 192.333 C 272.330 192.142,274.000 189.702,274.000 189.265 C 274.000 189.063,274.270 188.674,274.600 188.400 C 274.930 188.126,275.200 187.604,275.200 187.239 C 275.200 186.875,275.560 186.317,276.000 186.000 C 276.440 185.683,276.800 185.103,276.800 184.712 C 276.800 184.320,276.980 184.000,277.200 184.000 C 277.420 184.000,277.600 183.764,277.600 183.475 C 277.600 183.187,277.960 182.564,278.400 182.092 C 278.840 181.620,279.200 180.996,279.200 180.705 C 279.200 180.414,279.560 179.917,280.000 179.600 C 280.440 179.283,280.800 178.786,280.800 178.495 C 280.800 178.204,281.160 177.580,281.600 177.108 C 282.040 176.636,282.400 176.013,282.400 175.725 C 282.400 175.436,282.580 175.200,282.800 175.200 C 283.020 175.200,283.200 174.930,283.200 174.600 C 283.200 174.270,283.380 174.000,283.600 174.000 C 283.820 174.000,284.000 173.730,284.000 173.400 C 284.000 173.070,284.180 172.800,284.400 172.800 C 284.620 172.800,284.800 172.530,284.800 172.200 C 284.800 171.870,284.980 171.600,285.200 171.600 C 285.420 171.600,285.600 171.364,285.600 171.075 C 285.600 170.787,285.960 170.164,286.400 169.692 C 286.840 169.220,287.200 168.638,287.200 168.400 C 287.200 168.162,287.560 167.580,288.000 167.108 C 288.440 166.636,288.800 166.013,288.800 165.725 C 288.800 165.436,288.949 165.200,289.130 165.200 C 289.312 165.200,289.987 164.120,290.630 162.801 C 291.274 161.481,291.935 160.401,292.100 160.401 C 292.265 160.400,292.400 160.080,292.400 159.688 C 292.400 159.297,292.760 158.717,293.200 158.400 C 293.640 158.083,294.000 157.593,294.000 157.312 C 294.000 157.030,294.180 156.800,294.400 156.800 C 294.620 156.800,294.800 156.564,294.800 156.275 C 294.800 155.987,295.160 155.364,295.600 154.892 C 296.040 154.420,296.400 153.796,296.400 153.505 C 296.400 153.214,296.760 152.717,297.200 152.400 C 297.640 152.083,298.000 151.586,298.000 151.295 C 298.000 151.004,298.360 150.380,298.800 149.908 C 299.240 149.436,299.600 148.813,299.600 148.525 C 299.600 148.236,299.780 148.000,300.000 148.000 C 300.220 148.000,300.400 147.680,300.400 147.288 C 300.400 146.897,300.760 146.317,301.200 146.000 C 301.640 145.683,302.000 145.186,302.000 144.895 C 302.000 144.604,302.360 143.980,302.800 143.508 C 303.240 143.036,303.600 142.413,303.600 142.125 C 303.600 141.836,303.780 141.600,304.000 141.600 C 304.220 141.600,304.400 141.352,304.400 141.049 C 304.400 140.746,304.666 140.277,304.992 140.007 C 306.698 138.591,307.374 134.397,306.246 132.223 C 305.059 129.935,306.060 130.027,281.980 130.013 C 257.775 129.999,258.800 130.104,258.800 127.640 C 258.800 126.008,257.567 121.600,257.111 121.600 C 256.940 121.600,256.800 121.240,256.800 120.800 C 256.800 120.360,256.620 120.000,256.400 120.000 C 256.180 120.000,256.000 119.807,256.000 119.572 C 256.000 118.094,248.579 110.000,247.223 110.000 C 246.868 110.000,246.317 109.640,246.000 109.200 C 245.683 108.760,245.103 108.400,244.712 108.400 C 244.320 108.400,244.000 108.220,244.000 108.000 C 244.000 107.780,243.640 107.600,243.200 107.600 C 242.760 107.600,242.400 107.420,242.400 107.200 C 242.400 106.980,241.961 106.800,241.424 106.800 C 240.887 106.800,240.336 106.620,240.200 106.400 C 240.064 106.180,239.333 106.000,238.576 106.000 C 237.819 106.000,237.200 105.820,237.200 105.600 C 237.200 105.349,234.733 105.200,230.600 105.200 C 226.467 105.200,224.000 105.349,224.000 105.600 M236.602 115.810 C 242.956 118.102,248.730 124.429,248.945 129.334 L 249.000 130.600 230.800 130.696 C 210.118 130.805,211.322 130.997,212.465 127.782 C 214.600 121.783,219.093 117.574,225.800 115.293 C 228.241 114.463,233.576 114.718,236.602 115.810 M292.902 139.835 C 293.163 140.096,291.599 142.868,289.181 146.429 C 288.311 147.709,287.600 148.850,287.600 148.964 C 287.600 149.079,286.461 150.934,285.070 153.086 C 283.678 155.239,281.132 159.250,279.413 162.000 C 277.693 164.750,275.680 167.945,274.939 169.100 L 273.592 171.200 200.045 171.200 C 141.691 171.200,126.414 171.097,126.092 170.700 C 125.868 170.425,125.331 169.570,124.898 168.800 C 124.073 167.335,120.024 160.931,115.727 154.299 C 114.337 152.153,113.200 150.301,113.200 150.184 C 113.200 150.066,112.120 148.363,110.800 146.400 C 109.480 144.437,108.400 142.717,108.400 142.577 C 108.400 142.438,108.045 141.825,107.612 141.217 C 107.178 140.608,106.938 139.995,107.078 139.855 C 107.399 139.534,292.582 139.515,292.902 139.835 M267.200 180.751 C 267.200 180.943,264.205 185.848,260.544 191.651 C 256.884 197.453,253.044 203.550,252.013 205.200 C 250.981 206.850,248.373 210.990,246.217 214.400 C 241.685 221.568,237.975 227.498,237.400 228.492 C 236.993 229.195,234.992 232.367,226.607 245.600 C 224.027 249.670,221.576 253.668,221.159 254.484 C 220.437 255.897,220.400 257.232,220.400 282.160 C 220.400 297.374,220.248 308.447,220.038 308.577 C 219.838 308.700,217.737 307.720,215.368 306.400 C 212.998 305.080,211.009 304.000,210.948 304.000 C 210.886 304.000,209.972 303.493,208.918 302.873 C 207.863 302.253,205.740 301.060,204.200 300.220 C 202.660 299.381,200.500 298.202,199.400 297.600 C 198.300 296.998,196.140 295.826,194.600 294.994 C 193.060 294.163,190.755 292.880,189.479 292.142 C 188.202 291.404,187.091 290.800,187.010 290.800 C 186.929 290.800,185.305 289.900,183.400 288.800 C 181.495 287.700,179.790 286.800,179.611 286.800 C 178.891 286.800,178.800 284.930,178.800 270.153 C 178.800 257.767,178.692 254.599,178.248 253.886 C 177.944 253.399,174.681 248.140,170.996 242.200 C 167.312 236.260,163.443 230.050,162.399 228.400 C 161.355 226.750,159.038 223.087,157.250 220.260 C 155.463 217.433,154.000 215.040,154.000 214.942 C 154.000 214.844,153.100 213.430,152.000 211.800 C 150.900 210.170,150.000 208.736,150.000 208.613 C 150.000 208.491,149.208 207.178,148.241 205.695 C 142.918 197.538,132.860 181.026,133.039 180.737 C 133.318 180.285,267.200 180.299,267.200 180.751 M194.400 325.200 C 194.400 325.420,193.680 325.600,192.800 325.600 C 191.920 325.600,191.200 325.780,191.200 326.000 C 191.200 326.220,190.660 326.400,190.000 326.400 C 189.340 326.400,188.800 326.580,188.800 326.800 C 188.800 327.020,188.503 327.200,188.140 327.200 C 187.247 327.200,183.200 329.205,183.200 329.647 C 183.200 329.841,182.946 330.000,182.635 330.000 C 182.128 330.000,179.776 332.223,176.100 336.179 C 175.385 336.948,174.800 337.852,174.800 338.189 C 174.800 338.525,174.620 338.800,174.400 338.800 C 174.180 338.800,174.000 339.078,174.000 339.417 C 174.000 339.756,173.640 340.420,173.200 340.892 C 172.760 341.364,172.400 342.167,172.400 342.675 C 172.400 343.184,172.220 343.600,172.000 343.600 C 171.780 343.600,171.600 343.960,171.600 344.400 C 171.600 344.840,171.420 345.200,171.200 345.200 C 170.980 345.200,170.800 345.830,170.800 346.600 C 170.800 347.370,170.620 348.000,170.400 348.000 C 170.171 348.000,170.000 349.202,170.000 350.805 C 170.000 352.348,169.777 353.968,169.504 354.405 C 169.109 355.038,169.109 355.362,169.504 355.995 C 169.784 356.444,170.000 358.096,170.000 359.795 C 170.000 361.532,170.169 362.800,170.400 362.800 C 170.620 362.800,170.800 363.340,170.800 364.000 C 170.800 364.660,170.980 365.200,171.200 365.200 C 171.420 365.200,171.600 365.740,171.600 366.400 C 171.600 367.060,171.780 367.600,172.000 367.600 C 172.220 367.600,172.400 367.960,172.400 368.400 C 172.400 368.840,172.580 369.200,172.800 369.200 C 173.020 369.200,173.200 369.560,173.200 370.000 C 173.200 370.440,173.380 370.800,173.600 370.800 C 173.820 370.800,174.000 371.120,174.000 371.512 C 174.000 371.903,174.360 372.483,174.800 372.800 C 175.240 373.117,175.600 373.523,175.600 373.703 C 175.600 374.380,180.419 379.330,181.970 380.246 C 182.647 380.646,183.200 381.114,183.200 381.286 C 183.200 381.459,183.478 381.600,183.817 381.600 C 184.156 381.600,184.820 381.960,185.292 382.400 C 185.764 382.840,186.466 383.200,186.852 383.200 C 187.237 383.200,187.664 383.380,187.800 383.600 C 187.936 383.820,188.397 384.000,188.824 384.000 C 189.251 384.000,189.600 384.180,189.600 384.400 C 189.600 384.620,190.140 384.800,190.800 384.800 C 191.460 384.800,192.000 384.980,192.000 385.200 C 192.000 385.420,192.889 385.600,193.976 385.600 C 195.063 385.600,196.064 385.780,196.200 386.000 C 196.338 386.223,198.196 386.400,200.400 386.400 C 202.604 386.400,204.462 386.223,204.600 386.000 C 204.736 385.780,205.737 385.600,206.824 385.600 C 207.911 385.600,208.800 385.420,208.800 385.200 C 208.800 384.980,209.340 384.800,210.000 384.800 C 210.660 384.800,211.200 384.620,211.200 384.400 C 211.200 384.180,211.560 384.000,212.000 384.000 C 212.440 384.000,212.800 383.820,212.800 383.600 C 212.800 383.380,213.216 383.200,213.725 383.200 C 214.233 383.200,215.036 382.840,215.508 382.400 C 215.980 381.960,216.604 381.600,216.895 381.600 C 217.186 381.600,217.683 381.240,218.000 380.800 C 218.317 380.360,218.801 380.000,219.075 380.000 C 219.647 380.000,225.200 374.508,225.200 373.942 C 225.200 373.735,225.560 373.180,226.000 372.708 C 226.440 372.236,226.800 371.613,226.800 371.325 C 226.800 371.036,226.980 370.800,227.200 370.800 C 227.420 370.800,227.600 370.440,227.600 370.000 C 227.600 369.560,227.780 369.200,228.000 369.200 C 228.220 369.200,228.400 368.840,228.400 368.400 C 228.400 367.960,228.580 367.600,228.800 367.600 C 229.020 367.600,229.200 367.060,229.200 366.400 C 229.200 365.740,229.380 365.200,229.600 365.200 C 229.820 365.200,230.000 364.671,230.000 364.024 C 230.000 363.377,230.180 362.736,230.400 362.600 C 230.642 362.451,230.800 359.604,230.800 355.400 C 230.800 351.196,230.642 348.349,230.400 348.200 C 230.180 348.064,230.000 347.423,230.000 346.776 C 230.000 346.129,229.820 345.600,229.600 345.600 C 229.380 345.600,229.200 345.150,229.200 344.600 C 229.200 344.050,229.020 343.600,228.800 343.600 C 228.580 343.600,228.400 343.240,228.400 342.800 C 228.400 342.360,228.220 342.000,228.000 342.000 C 227.780 342.000,227.600 341.640,227.600 341.200 C 227.600 340.760,227.420 340.400,227.200 340.400 C 226.980 340.400,226.800 340.040,226.800 339.600 C 226.800 339.160,226.641 338.800,226.446 338.800 C 226.251 338.800,225.774 338.132,225.386 337.315 C 224.592 335.641,219.019 330.000,218.159 330.000 C 217.852 330.000,217.600 329.858,217.600 329.684 C 217.600 329.262,213.499 327.200,212.660 327.200 C 212.297 327.200,212.000 327.020,212.000 326.800 C 212.000 326.580,211.460 326.400,210.800 326.400 C 210.140 326.400,209.600 326.220,209.600 326.000 C 209.600 325.780,208.790 325.600,207.800 325.600 C 206.810 325.600,206.000 325.420,206.000 325.200 C 206.000 324.952,203.800 324.800,200.200 324.800 C 196.600 324.800,194.400 324.952,194.400 325.200 M205.352 335.206 C 219.077 338.665,225.403 353.945,218.199 366.238 C 217.074 368.157,212.636 372.800,211.927 372.800 C 211.705 372.800,211.046 373.136,210.462 373.546 C 201.772 379.651,186.835 375.038,181.882 364.719 C 178.620 357.925,178.669 352.462,182.053 345.432 C 185.862 337.517,196.315 332.929,205.352 335.206 " stroke="none" fill="#64346c" fill-rule="evenodd"></path><path id="path3" d="M222.000 24.063 C 204.820 25.800,198.788 47.732,212.600 58.240 C 220.404 64.177,232.535 62.866,238.588 55.431 C 249.661 41.829,239.339 22.310,222.000 24.063 M141.650 72.225 C 125.762 77.637,124.134 101.045,139.200 107.467 C 139.750 107.701,140.650 108.082,141.200 108.313 C 149.839 111.942,160.846 107.273,165.037 98.202 C 171.991 83.152,157.341 66.881,141.650 72.225 M225.800 115.293 C 219.093 117.574,214.600 121.783,212.465 127.782 C 211.322 130.997,210.118 130.805,230.800 130.696 L 249.000 130.600 248.945 129.334 C 248.567 120.686,234.692 112.269,225.800 115.293 M195.261 335.227 C 188.622 336.941,183.173 341.832,180.808 348.200 C 176.614 359.490,182.997 371.876,194.859 375.467 C 199.506 376.874,207.046 375.945,210.462 373.546 C 211.046 373.136,211.705 372.800,211.927 372.800 C 212.636 372.800,217.074 368.157,218.199 366.238 C 227.662 350.091,213.235 330.587,195.261 335.227 " stroke="none" fill="#6c9ec6" fill-rule="evenodd"></path><path id="path4" d="M107.078 139.855 C 106.938 139.995,107.178 140.608,107.612 141.217 C 108.045 141.825,108.400 142.438,108.400 142.577 C 108.400 142.717,109.480 144.437,110.800 146.400 C 112.120 148.363,113.200 150.066,113.200 150.184 C 113.200 150.301,114.337 152.153,115.727 154.299 C 120.024 160.931,124.073 167.335,124.898 168.800 C 125.331 169.570,125.868 170.425,126.092 170.700 C 126.414 171.097,141.691 171.200,200.045 171.200 L 273.592 171.200 274.939 169.100 C 275.680 167.945,277.693 164.750,279.413 162.000 C 281.132 159.250,283.678 155.239,285.070 153.086 C 286.461 150.934,287.600 149.079,287.600 148.964 C 287.600 148.850,288.311 147.709,289.181 146.429 C 291.599 142.868,293.163 140.096,292.902 139.835 C 292.582 139.515,107.399 139.534,107.078 139.855 M292.000 140.600 C 292.000 140.930,291.841 141.200,291.647 141.200 C 291.452 141.200,291.193 141.515,291.071 141.900 C 290.783 142.809,289.588 144.753,288.700 145.758 C 288.315 146.194,288.000 146.787,288.000 147.075 C 288.000 147.364,287.820 147.600,287.600 147.600 C 287.380 147.600,287.200 147.836,287.200 148.125 C 287.200 148.413,286.840 149.036,286.400 149.508 C 285.960 149.980,285.600 150.446,285.600 150.543 C 285.600 150.640,284.530 152.403,283.223 154.460 C 278.961 161.167,277.200 164.087,277.200 164.447 C 277.200 164.641,277.020 164.800,276.800 164.800 C 276.580 164.800,276.400 165.036,276.400 165.325 C 276.400 165.613,276.040 166.236,275.600 166.708 C 275.160 167.180,274.800 167.667,274.800 167.789 C 274.800 167.911,274.395 168.636,273.900 169.401 L 273.000 170.790 199.996 170.795 L 126.992 170.800 126.459 169.945 C 126.165 169.475,125.609 168.530,125.222 167.845 C 124.446 166.470,120.340 160.023,119.154 158.316 C 118.739 157.720,118.400 157.127,118.400 156.998 C 118.400 156.869,117.500 155.430,116.400 153.800 C 115.300 152.170,114.400 150.648,114.400 150.418 C 114.400 150.188,114.220 150.000,114.000 150.000 C 113.780 150.000,113.600 149.764,113.600 149.475 C 113.600 149.187,113.285 148.593,112.900 148.155 C 112.515 147.717,111.975 146.963,111.700 146.480 C 111.425 145.996,110.975 145.204,110.700 144.720 C 110.425 144.237,109.885 143.483,109.500 143.045 C 109.115 142.607,108.800 142.013,108.800 141.725 C 108.800 141.436,108.620 141.200,108.400 141.200 C 108.180 141.200,108.000 140.930,108.000 140.600 C 108.000 140.068,118.489 140.000,200.000 140.000 C 281.511 140.000,292.000 140.068,292.000 140.600 M133.062 180.700 C 132.894 180.971,178.945 180.970,243.200 180.697 C 256.510 180.640,237.216 180.550,200.324 180.497 C 163.432 180.444,133.164 180.535,133.062 180.700 M178.982 270.400 C 178.982 279.090,179.035 282.645,179.100 278.300 C 179.164 273.955,179.164 266.845,179.100 262.500 C 179.035 258.155,178.982 261.710,178.982 270.400 " stroke="none" fill="#bea474" fill-rule="evenodd"></path></g></svg>