<svg id="svg" version="1.1" xmlns="http://www.w3.org/2000/svg" xmlns:xlink="http://www.w3.org/1999/xlink" width="400" height="400" viewBox="0, 0, 400,400"><g id="svgg"><path id="path0" d="M173.800 82.627 C 173.360 82.692,171.020 82.947,168.600 83.195 C 166.180 83.443,163.210 83.831,162.000 84.058 C 157.200 84.955,152.067 86.093,149.500 86.827 C 143.707 88.485,140.984 89.357,140.620 89.672 C 140.411 89.852,139.914 90.000,139.515 90.000 C 139.116 90.000,138.477 90.159,138.095 90.353 C 137.713 90.548,136.950 90.884,136.400 91.100 C 132.349 92.692,131.879 92.902,126.200 95.646 C 119.677 98.797,108.222 105.515,107.200 106.789 C 107.090 106.926,106.370 107.470,105.600 107.998 C 104.191 108.963,99.402 112.765,96.800 114.984 C 94.984 116.532,85.332 126.184,83.784 128.000 C 81.565 130.602,77.763 135.391,76.798 136.800 C 76.270 137.570,75.728 138.290,75.593 138.400 C 74.197 139.537,67.408 151.159,64.145 158.000 C 61.961 162.577,61.246 164.202,60.054 167.300 C 59.863 167.795,59.515 168.650,59.280 169.200 C 59.045 169.750,58.639 170.920,58.377 171.800 C 58.116 172.680,57.744 173.713,57.551 174.095 C 57.358 174.477,57.200 175.141,57.200 175.571 C 57.200 176.001,57.040 176.452,56.844 176.573 C 56.649 176.694,56.395 177.379,56.281 178.096 C 56.168 178.813,55.866 180.120,55.611 181.000 C 49.663 201.519,49.663 229.681,55.611 250.200 C 55.866 251.080,56.168 252.387,56.281 253.104 C 56.395 253.821,56.649 254.506,56.844 254.627 C 57.040 254.748,57.200 255.199,57.200 255.629 C 57.200 256.059,57.358 256.723,57.551 257.105 C 57.744 257.487,58.116 258.520,58.377 259.400 C 58.639 260.280,59.045 261.450,59.280 262.000 C 59.515 262.550,59.863 263.405,60.054 263.900 C 63.683 273.329,71.472 287.765,75.856 293.191 C 76.126 293.526,77.017 294.700,77.835 295.800 C 84.719 305.056,97.251 317.475,105.200 322.921 C 106.190 323.599,107.060 324.299,107.133 324.477 C 107.207 324.655,107.507 324.800,107.800 324.800 C 108.093 324.800,108.393 324.945,108.467 325.123 C 108.659 325.591,112.265 328.000,112.772 328.000 C 113.007 328.000,113.200 328.180,113.200 328.400 C 113.200 328.620,113.397 328.800,113.638 328.800 C 113.879 328.800,114.554 329.139,115.138 329.553 C 118.305 331.798,133.908 339.600,135.231 339.600 C 135.455 339.600,136.384 339.960,137.294 340.400 C 138.205 340.840,139.266 341.200,139.652 341.200 C 140.037 341.200,140.464 341.380,140.600 341.600 C 140.736 341.820,141.257 342.000,141.757 342.000 C 142.257 342.000,142.790 342.123,142.941 342.274 C 143.380 342.713,146.119 343.587,147.076 343.594 C 147.558 343.597,148.051 343.759,148.171 343.954 C 148.292 344.149,148.887 344.410,149.495 344.536 C 150.585 344.761,152.581 345.197,156.300 346.021 C 176.257 350.446,200.051 349.836,219.400 344.404 C 220.280 344.157,221.540 343.807,222.200 343.626 C 223.819 343.181,229.605 341.251,230.600 340.822 C 231.040 340.633,232.480 340.073,233.800 339.578 C 237.372 338.239,247.807 333.182,250.941 331.271 C 252.448 330.352,253.760 329.600,253.856 329.600 C 254.604 329.600,265.977 321.348,270.600 317.452 C 274.152 314.458,280.716 308.092,283.802 304.649 C 285.378 302.890,288.818 298.748,289.710 297.535 C 290.303 296.729,291.016 295.821,291.294 295.518 C 291.572 295.214,291.980 294.684,292.200 294.339 C 292.420 293.994,293.871 291.842,295.424 289.556 C 302.891 278.566,309.104 265.127,312.788 252.000 C 313.066 251.010,313.437 249.750,313.613 249.200 C 313.789 248.650,314.056 247.570,314.207 246.800 C 314.359 246.030,314.644 244.680,314.842 243.800 C 317.397 232.445,318.567 216.734,317.605 206.716 C 316.729 197.595,316.172 193.518,315.188 189.000 C 314.996 188.120,314.628 186.410,314.370 185.200 C 314.112 183.990,313.764 182.550,313.597 182.000 C 313.430 181.450,313.066 180.190,312.788 179.200 C 309.307 166.794,303.113 153.148,296.265 142.800 C 291.900 136.203,283.467 125.600,282.585 125.600 C 281.932 125.600,247.600 160.188,247.600 160.846 C 247.600 161.207,247.884 161.737,248.230 162.025 C 250.407 163.831,255.904 172.427,259.342 179.400 C 280.366 222.042,259.979 275.140,215.800 292.806 C 205.212 297.040,195.986 298.801,184.410 298.799 C 178.652 298.798,173.255 298.353,169.400 297.562 C 164.030 296.459,159.667 295.309,157.400 294.398 C 156.960 294.221,155.070 293.482,153.200 292.755 C 104.102 273.682,85.795 212.321,116.040 168.200 C 140.370 132.708,192.292 121.375,227.000 143.982 C 227.880 144.555,229.092 145.273,229.693 145.576 C 230.295 145.880,231.105 146.419,231.493 146.775 C 231.882 147.131,232.830 147.855,233.600 148.385 C 234.370 148.915,235.835 150.035,236.856 150.874 C 237.876 151.713,238.975 152.400,239.297 152.400 C 239.952 152.400,274.137 118.346,274.310 117.521 C 274.971 114.386,246.700 96.421,233.200 91.396 C 232.210 91.027,231.040 90.570,230.600 90.380 C 229.613 89.953,223.834 88.023,222.200 87.574 C 221.540 87.393,220.280 87.043,219.400 86.796 C 207.378 83.421,183.335 81.223,173.800 82.627 " stroke="none" fill="#e7e7e7" fill-rule="evenodd"></path><path id="path1" d="M333.996 21.197 C 322.338 32.855,312.800 42.650,312.800 42.963 C 312.800 43.277,312.580 43.607,312.310 43.697 C 311.712 43.896,311.813 60.103,312.419 61.236 C 312.629 61.627,312.800 64.559,312.800 67.750 C 312.800 71.187,312.963 73.654,313.200 73.800 C 313.420 73.936,313.600 74.757,313.600 75.624 C 313.600 76.626,313.784 77.200,314.105 77.200 C 314.382 77.200,325.350 66.445,338.478 53.300 C 363.607 28.138,364.116 27.556,362.450 25.890 C 362.156 25.596,362.000 23.321,362.000 19.320 C 362.000 15.507,361.849 13.200,361.600 13.200 C 361.352 13.200,361.200 11.067,361.200 7.600 C 361.200 4.133,361.048 2.000,360.800 2.000 C 360.580 2.000,360.400 1.659,360.400 1.243 C 360.400 0.288,359.649 0.000,357.163 0.000 L 355.192 0.000 333.996 21.197 M371.200 37.802 C 369.271 38.808,322.800 85.003,322.800 85.915 C 322.800 86.223,323.456 86.400,324.600 86.400 C 325.590 86.400,326.400 86.580,326.400 86.800 C 326.400 87.049,328.725 87.200,332.576 87.200 C 336.263 87.200,338.852 87.361,339.000 87.600 C 339.146 87.837,341.606 88.000,345.029 88.000 C 348.937 88.000,351.068 88.161,351.605 88.496 C 352.238 88.891,352.562 88.891,353.195 88.496 C 353.632 88.223,354.421 88.000,354.949 88.000 C 356.598 88.000,357.660 87.171,363.911 81.000 C 370.165 74.827,370.854 74.141,380.698 64.298 C 383.888 61.108,387.557 57.441,388.851 56.149 C 399.460 45.561,400.000 44.916,400.000 42.820 C 400.000 40.351,399.710 39.600,398.757 39.600 C 398.341 39.600,398.000 39.420,398.000 39.200 C 398.000 38.952,395.867 38.800,392.400 38.800 C 388.933 38.800,386.800 38.648,386.800 38.400 C 386.800 38.151,384.529 38.000,380.786 38.000 C 376.270 38.000,374.551 37.858,373.886 37.432 C 373.094 36.923,372.809 36.963,371.200 37.802 M177.721 184.197 C 174.849 184.898,171.667 186.035,170.000 186.954 C 169.230 187.378,168.238 187.922,167.796 188.163 C 161.686 191.487,155.496 199.571,153.677 206.600 C 153.450 207.480,153.069 208.941,152.832 209.846 C 152.594 210.752,152.400 213.341,152.400 215.600 C 152.400 217.859,152.594 220.448,152.832 221.354 C 153.069 222.259,153.450 223.720,153.677 224.600 C 154.952 229.526,157.651 234.062,161.786 238.229 C 165.207 241.675,167.419 243.137,173.000 245.640 C 176.818 247.353,186.601 248.205,190.554 247.168 C 191.459 246.931,192.920 246.542,193.800 246.303 C 210.563 241.760,220.276 222.825,214.849 205.267 C 214.161 203.041,211.534 198.000,211.061 198.000 C 210.817 198.000,205.394 203.207,199.009 209.570 C 186.514 222.024,186.447 222.073,182.994 221.425 C 181.161 221.081,178.919 218.839,178.575 217.006 C 177.929 213.564,177.990 213.482,190.434 200.985 C 196.795 194.597,202.000 189.179,202.000 188.945 C 202.000 188.465,197.918 186.327,195.226 185.396 C 189.982 183.583,182.366 183.061,177.721 184.197 " stroke="none" fill="#2c5883" fill-rule="evenodd"></path><path id="path2" d="M179.435 30.300 C 179.271 30.465,176.316 30.729,172.868 30.887 C 164.131 31.288,160.662 31.602,160.220 32.031 C 160.011 32.234,158.627 32.400,157.144 32.400 C 155.661 32.400,154.336 32.580,154.200 32.800 C 154.064 33.020,152.973 33.200,151.776 33.200 C 150.579 33.200,149.600 33.380,149.600 33.600 C 149.600 33.820,148.801 34.000,147.824 34.000 C 146.847 34.000,145.936 34.180,145.800 34.400 C 145.664 34.620,144.933 34.800,144.176 34.800 C 143.419 34.800,142.800 34.980,142.800 35.200 C 142.800 35.420,141.900 35.600,140.800 35.600 C 139.700 35.600,138.800 35.780,138.800 36.000 C 138.800 36.220,138.181 36.400,137.424 36.400 C 136.667 36.400,135.936 36.580,135.800 36.800 C 135.664 37.020,135.023 37.200,134.376 37.200 C 133.729 37.200,133.200 37.380,133.200 37.600 C 133.200 37.820,132.671 38.000,132.024 38.000 C 131.377 38.000,130.736 38.180,130.600 38.400 C 130.464 38.620,129.823 38.800,129.176 38.800 C 128.529 38.800,128.000 38.980,128.000 39.200 C 128.000 39.420,127.460 39.600,126.800 39.600 C 126.140 39.600,125.600 39.780,125.600 40.000 C 125.600 40.220,125.060 40.400,124.400 40.400 C 123.740 40.400,123.200 40.580,123.200 40.800 C 123.200 41.020,122.660 41.200,122.000 41.200 C 121.340 41.200,120.800 41.380,120.800 41.600 C 120.800 41.820,120.440 42.000,120.000 42.000 C 119.560 42.000,119.200 42.180,119.200 42.400 C 119.200 42.620,118.660 42.800,118.000 42.800 C 117.340 42.800,116.800 42.960,116.800 43.155 C 116.800 43.351,116.147 43.633,115.350 43.783 C 114.044 44.028,109.681 45.800,107.905 46.806 C 107.523 47.023,106.938 47.200,106.605 47.200 C 106.272 47.200,106.000 47.380,106.000 47.600 C 106.000 47.820,105.640 48.000,105.200 48.000 C 104.760 48.000,104.400 48.180,104.400 48.400 C 104.400 48.620,104.055 48.800,103.633 48.800 C 103.212 48.800,102.807 48.935,102.733 49.100 C 102.541 49.532,99.228 51.200,98.562 51.200 C 98.253 51.200,98.000 51.380,98.000 51.600 C 98.000 51.820,97.640 52.000,97.200 52.000 C 96.760 52.000,96.400 52.136,96.400 52.302 C 96.400 52.469,95.894 52.829,95.275 53.103 C 94.656 53.376,93.764 53.960,93.292 54.400 C 92.820 54.840,92.156 55.200,91.817 55.200 C 91.478 55.200,91.200 55.380,91.200 55.600 C 91.200 55.820,90.840 56.000,90.400 56.000 C 89.960 56.000,89.600 56.180,89.600 56.400 C 89.600 56.620,89.364 56.800,89.075 56.800 C 88.787 56.800,88.164 57.160,87.692 57.600 C 87.220 58.040,86.596 58.400,86.305 58.400 C 86.014 58.400,85.517 58.760,85.200 59.200 C 84.883 59.640,84.325 60.000,83.961 60.000 C 83.596 60.000,83.074 60.270,82.800 60.600 C 82.526 60.930,82.082 61.200,81.813 61.200 C 81.544 61.200,80.998 61.560,80.600 62.000 C 80.202 62.440,79.634 62.800,79.338 62.800 C 79.042 62.800,78.800 62.941,78.800 63.114 C 78.800 63.286,78.255 63.749,77.589 64.143 C 76.923 64.536,75.941 65.295,75.407 65.829 C 74.873 66.363,74.230 66.800,73.979 66.800 C 73.727 66.800,73.017 67.340,72.400 68.000 C 71.783 68.660,71.103 69.200,70.888 69.200 C 70.673 69.200,69.755 69.920,68.848 70.800 C 67.941 71.680,67.059 72.400,66.888 72.400 C 66.717 72.400,65.348 73.570,63.846 75.000 C 62.343 76.430,60.972 77.600,60.798 77.600 C 60.384 77.600,46.000 91.910,46.000 92.322 C 46.000 92.495,44.920 93.776,43.600 95.167 C 42.280 96.559,41.200 97.855,41.200 98.048 C 41.200 98.241,40.480 99.141,39.600 100.048 C 38.720 100.955,38.000 101.856,38.000 102.052 C 38.000 102.247,37.460 102.972,36.800 103.663 C 36.140 104.354,35.600 105.080,35.600 105.278 C 35.600 105.475,35.150 106.086,34.600 106.636 C 34.050 107.186,33.600 107.800,33.600 108.000 C 33.600 108.200,33.195 108.777,32.700 109.282 C 32.205 109.787,31.545 110.695,31.232 111.300 C 30.920 111.905,30.515 112.400,30.332 112.400 C 30.150 112.400,30.000 112.670,30.000 113.000 C 30.000 113.330,29.865 113.601,29.700 113.601 C 29.535 113.602,28.860 114.637,28.200 115.901 C 27.540 117.166,26.910 118.290,26.799 118.400 C 26.689 118.510,26.344 119.095,26.032 119.700 C 25.720 120.305,25.315 120.800,25.132 120.800 C 24.950 120.800,24.800 121.160,24.800 121.600 C 24.800 122.040,24.620 122.400,24.400 122.400 C 24.180 122.400,24.000 122.678,24.000 123.017 C 24.000 123.356,23.640 124.020,23.200 124.492 C 22.760 124.964,22.400 125.587,22.400 125.875 C 22.400 126.164,22.254 126.400,22.075 126.400 C 21.896 126.400,21.502 127.030,21.200 127.800 C 20.898 128.570,20.504 129.200,20.325 129.200 C 20.146 129.200,20.000 129.560,20.000 130.000 C 20.000 130.440,19.820 130.800,19.600 130.800 C 19.380 130.800,19.200 131.160,19.200 131.600 C 19.200 132.040,19.020 132.400,18.800 132.400 C 18.580 132.400,18.400 132.760,18.400 133.200 C 18.400 133.640,18.220 134.000,18.000 134.000 C 17.780 134.000,17.600 134.360,17.600 134.800 C 17.600 135.240,17.420 135.600,17.200 135.600 C 16.980 135.600,16.800 135.836,16.800 136.125 C 16.800 136.414,16.440 137.395,16.000 138.306 C 15.560 139.216,15.200 140.240,15.200 140.581 C 15.200 140.921,15.020 141.200,14.800 141.200 C 14.580 141.200,14.400 141.560,14.400 142.000 C 14.400 142.440,14.220 142.800,14.000 142.800 C 13.780 142.800,13.600 143.072,13.600 143.405 C 13.600 143.738,13.441 144.323,13.246 144.705 C 12.500 146.166,11.206 149.489,10.560 151.600 C 10.190 152.810,9.733 154.113,9.544 154.495 C 9.355 154.877,9.200 155.552,9.200 155.995 C 9.200 156.438,9.020 156.800,8.800 156.800 C 8.580 156.800,8.400 157.340,8.400 158.000 C 8.400 158.660,8.220 159.200,8.000 159.200 C 7.780 159.200,7.600 159.830,7.600 160.600 C 7.600 161.370,7.420 162.000,7.200 162.000 C 6.980 162.000,6.800 162.529,6.800 163.176 C 6.800 163.823,6.620 164.464,6.400 164.600 C 6.180 164.736,6.000 165.467,6.000 166.224 C 6.000 166.981,5.820 167.600,5.600 167.600 C 5.380 167.600,5.200 168.320,5.200 169.200 C 5.200 170.080,5.020 170.800,4.800 170.800 C 4.580 170.800,4.400 171.520,4.400 172.400 C 4.400 173.280,4.220 174.000,4.000 174.000 C 3.780 174.000,3.600 174.720,3.600 175.600 C 3.600 176.480,3.420 177.200,3.200 177.200 C 2.980 177.200,2.800 178.100,2.800 179.200 C 2.800 180.300,2.620 181.200,2.400 181.200 C 2.180 181.200,2.000 182.179,2.000 183.376 C 2.000 184.573,1.820 185.664,1.600 185.800 C 1.380 185.936,1.200 187.261,1.200 188.744 C 1.200 190.367,1.001 191.639,0.700 191.940 C -0.029 192.669,-0.029 238.531,0.700 239.260 C 1.001 239.561,1.200 240.833,1.200 242.456 C 1.200 243.939,1.380 245.264,1.600 245.400 C 1.820 245.536,2.000 246.526,2.000 247.600 C 2.000 248.674,2.180 249.664,2.400 249.800 C 2.620 249.936,2.800 250.937,2.800 252.024 C 2.800 253.111,2.980 254.000,3.200 254.000 C 3.420 254.000,3.600 254.720,3.600 255.600 C 3.600 256.480,3.780 257.200,4.000 257.200 C 4.220 257.200,4.400 257.920,4.400 258.800 C 4.400 259.680,4.580 260.400,4.800 260.400 C 5.020 260.400,5.200 261.120,5.200 262.000 C 5.200 262.880,5.380 263.600,5.600 263.600 C 5.820 263.600,6.000 264.219,6.000 264.976 C 6.000 265.733,6.180 266.464,6.400 266.600 C 6.620 266.736,6.800 267.377,6.800 268.024 C 6.800 268.671,6.980 269.200,7.200 269.200 C 7.420 269.200,7.600 269.729,7.600 270.376 C 7.600 271.023,7.780 271.664,8.000 271.800 C 8.220 271.936,8.400 272.476,8.400 273.000 C 8.400 273.524,8.580 274.064,8.800 274.200 C 9.020 274.336,9.200 274.876,9.200 275.400 C 9.200 275.924,9.364 276.454,9.565 276.578 C 9.766 276.703,10.058 277.561,10.215 278.487 C 10.371 279.412,10.636 280.446,10.803 280.785 C 11.113 281.413,11.726 282.888,12.346 284.500 C 13.035 286.287,13.549 287.459,15.161 290.907 C 16.062 292.837,16.800 294.682,16.800 295.007 C 16.800 295.333,16.980 295.600,17.200 295.600 C 17.420 295.600,17.600 295.960,17.600 296.400 C 17.600 296.840,17.735 297.201,17.900 297.203 C 18.259 297.207,19.200 299.144,19.200 299.880 C 19.200 300.166,19.380 300.400,19.600 300.400 C 19.820 300.400,20.000 300.760,20.000 301.200 C 20.000 301.640,20.180 302.000,20.400 302.000 C 20.620 302.000,20.800 302.278,20.800 302.617 C 20.800 302.956,21.160 303.620,21.600 304.092 C 22.040 304.564,22.400 305.187,22.400 305.475 C 22.400 305.764,22.580 306.000,22.800 306.000 C 23.020 306.000,23.200 306.360,23.200 306.800 C 23.200 307.240,23.380 307.600,23.600 307.600 C 23.820 307.600,24.000 307.870,24.000 308.200 C 24.000 308.530,24.180 308.800,24.400 308.800 C 24.620 308.800,24.800 309.120,24.800 309.512 C 24.800 309.903,25.160 310.483,25.600 310.800 C 26.040 311.117,26.400 311.682,26.400 312.055 C 26.400 312.428,26.535 312.793,26.700 312.867 C 26.865 312.940,27.540 314.034,28.200 315.299 C 28.860 316.563,29.535 317.598,29.700 317.599 C 29.865 317.599,30.000 317.825,30.000 318.100 C 30.001 318.375,30.466 319.140,31.035 319.800 C 31.604 320.460,32.363 321.495,32.721 322.100 C 33.079 322.705,33.514 323.200,33.686 323.200 C 33.859 323.200,34.000 323.430,34.000 323.712 C 34.000 323.993,34.360 324.483,34.800 324.800 C 35.240 325.117,35.600 325.621,35.600 325.920 C 35.600 326.218,36.320 327.154,37.200 328.000 C 38.080 328.846,38.800 329.749,38.800 330.008 C 38.800 330.267,39.340 330.983,40.000 331.600 C 40.660 332.217,41.200 332.884,41.200 333.082 C 41.200 333.281,41.851 334.154,42.646 335.022 C 43.441 335.890,44.926 337.578,45.946 338.774 C 50.029 343.562,64.162 357.171,66.328 358.400 C 66.909 358.730,67.866 359.495,68.453 360.100 C 69.040 360.705,69.733 361.200,69.992 361.200 C 70.251 361.200,71.154 361.920,72.000 362.800 C 72.846 363.680,73.782 364.400,74.080 364.400 C 74.379 364.400,74.883 364.760,75.200 365.200 C 75.517 365.640,75.999 366.000,76.270 366.000 C 76.542 366.000,77.190 366.405,77.712 366.900 C 79.086 368.204,80.446 369.269,81.382 369.773 C 82.410 370.327,84.535 371.710,84.800 371.999 C 84.910 372.118,85.450 372.436,86.000 372.705 C 87.266 373.324,88.413 374.059,89.112 374.700 C 89.412 374.975,90.004 375.200,90.429 375.200 C 90.853 375.200,91.200 375.380,91.200 375.600 C 91.200 375.820,91.560 376.000,92.000 376.000 C 92.440 376.000,92.800 376.180,92.800 376.400 C 92.800 376.620,92.993 376.800,93.228 376.800 C 93.463 376.800,94.441 377.340,95.400 378.000 C 96.359 378.660,97.337 379.200,97.572 379.200 C 97.807 379.200,98.000 379.380,98.000 379.600 C 98.000 379.820,98.360 380.000,98.800 380.000 C 99.240 380.000,99.600 380.180,99.600 380.400 C 99.600 380.620,99.960 380.800,100.400 380.800 C 100.840 380.800,101.200 380.980,101.200 381.200 C 101.200 381.420,101.560 381.600,102.000 381.600 C 102.440 381.600,102.800 381.780,102.800 382.000 C 102.800 382.220,103.160 382.400,103.600 382.400 C 104.040 382.400,104.400 382.580,104.400 382.800 C 104.400 383.020,104.760 383.200,105.200 383.200 C 105.640 383.200,106.000 383.380,106.000 383.600 C 106.000 383.820,106.439 384.000,106.976 384.000 C 107.513 384.000,108.064 384.180,108.200 384.400 C 108.336 384.620,108.797 384.800,109.224 384.800 C 109.651 384.800,110.000 384.936,110.000 385.102 C 110.000 385.372,110.762 385.748,113.400 386.780 C 114.920 387.375,116.603 388.095,117.295 388.447 C 117.677 388.641,118.262 388.800,118.595 388.800 C 118.928 388.800,119.200 388.980,119.200 389.200 C 119.200 389.420,119.729 389.600,120.376 389.600 C 121.023 389.600,121.664 389.780,121.800 390.000 C 121.936 390.220,122.487 390.400,123.024 390.400 C 123.561 390.400,124.000 390.563,124.000 390.762 C 124.000 390.962,124.900 391.249,126.000 391.400 C 127.099 391.551,128.100 391.838,128.223 392.037 C 128.346 392.237,128.966 392.400,129.600 392.400 C 130.234 392.400,130.864 392.580,131.000 392.800 C 131.136 393.020,131.676 393.200,132.200 393.200 C 132.724 393.200,133.264 393.380,133.400 393.600 C 133.536 393.820,134.267 394.000,135.024 394.000 C 135.781 394.000,136.400 394.180,136.400 394.400 C 136.400 394.620,137.120 394.800,138.000 394.800 C 138.880 394.800,139.600 394.980,139.600 395.200 C 139.600 395.420,140.320 395.600,141.200 395.600 C 142.080 395.600,142.800 395.780,142.800 396.000 C 142.800 396.220,143.509 396.400,144.376 396.400 C 145.243 396.400,146.064 396.580,146.200 396.800 C 146.336 397.020,147.236 397.200,148.200 397.200 C 149.164 397.200,150.064 397.380,150.200 397.600 C 150.336 397.820,151.326 398.000,152.400 398.000 C 153.474 398.000,154.464 398.180,154.600 398.400 C 154.736 398.620,155.992 398.800,157.390 398.800 C 159.069 398.800,159.990 398.970,160.100 399.300 C 160.231 399.693,165.449 399.800,184.400 399.800 C 203.351 399.800,208.569 399.693,208.700 399.300 C 208.812 398.964,209.776 398.800,211.633 398.800 C 213.155 398.800,214.400 398.637,214.400 398.437 C 214.400 398.237,215.345 397.972,216.500 397.846 C 221.799 397.271,222.800 397.099,222.800 396.761 C 222.800 396.563,223.520 396.400,224.400 396.400 C 225.280 396.400,226.000 396.220,226.000 396.000 C 226.000 395.780,226.720 395.600,227.600 395.600 C 228.480 395.600,229.200 395.420,229.200 395.200 C 229.200 394.980,229.920 394.800,230.800 394.800 C 231.680 394.800,232.400 394.620,232.400 394.400 C 232.400 394.180,233.120 394.000,234.000 394.000 C 234.880 394.000,235.600 393.820,235.600 393.600 C 235.600 393.380,236.129 393.200,236.776 393.200 C 237.423 393.200,238.064 393.020,238.200 392.800 C 238.336 392.580,238.977 392.400,239.624 392.400 C 240.271 392.400,240.800 392.220,240.800 392.000 C 240.800 391.780,241.238 391.600,241.772 391.600 C 242.954 391.600,249.347 389.552,249.533 389.113 C 249.607 388.941,249.930 388.800,250.253 388.800 C 250.575 388.800,251.584 388.440,252.494 388.000 C 253.405 387.560,254.368 387.200,254.635 387.200 C 254.901 387.200,256.145 386.660,257.400 386.000 C 258.655 385.340,260.023 384.800,260.441 384.800 C 260.858 384.800,261.200 384.620,261.200 384.400 C 261.200 384.180,261.560 384.000,262.000 384.000 C 262.440 384.000,262.800 383.820,262.800 383.600 C 262.800 383.380,263.160 383.200,263.600 383.200 C 264.040 383.200,264.400 383.020,264.400 382.800 C 264.400 382.580,264.760 382.400,265.200 382.400 C 265.640 382.400,266.000 382.220,266.000 382.000 C 266.000 381.780,266.360 381.600,266.800 381.600 C 267.240 381.600,267.600 381.420,267.600 381.200 C 267.600 380.980,267.960 380.800,268.400 380.800 C 268.840 380.800,269.200 380.620,269.200 380.400 C 269.200 380.180,269.560 380.000,270.000 380.000 C 270.440 380.000,270.800 379.820,270.800 379.600 C 270.800 379.380,271.160 379.200,271.600 379.200 C 272.040 379.200,272.400 379.064,272.400 378.898 C 272.400 378.731,272.985 378.340,273.700 378.028 C 274.415 377.716,275.291 377.132,275.647 376.730 C 276.003 376.329,276.588 376.000,276.947 376.000 C 277.306 376.000,277.600 375.820,277.600 375.600 C 277.600 375.380,277.887 375.200,278.238 375.200 C 278.921 375.200,281.056 374.106,281.895 373.326 C 282.175 373.066,282.764 372.738,283.202 372.599 C 283.641 372.460,284.000 372.178,284.000 371.973 C 284.000 371.768,284.236 371.600,284.525 371.600 C 284.813 371.600,285.436 371.240,285.908 370.800 C 286.380 370.360,286.978 370.000,287.236 370.000 C 287.495 370.000,287.997 369.684,288.353 369.297 C 288.709 368.911,289.495 368.340,290.100 368.030 C 290.705 367.719,291.200 367.315,291.200 367.132 C 291.200 366.950,291.398 366.800,291.640 366.800 C 291.881 366.800,292.583 366.260,293.200 365.600 C 293.817 364.940,294.537 364.400,294.800 364.400 C 295.063 364.400,295.783 363.860,296.400 363.200 C 297.017 362.540,297.733 362.000,297.992 362.000 C 298.251 362.000,299.136 361.300,299.958 360.443 C 300.781 359.587,301.735 358.822,302.078 358.743 C 303.305 358.461,320.645 341.768,323.800 337.831 C 324.460 337.007,325.585 335.725,326.300 334.980 C 327.015 334.236,327.600 333.462,327.600 333.262 C 327.600 333.061,328.320 332.155,329.200 331.248 C 330.080 330.341,330.800 329.402,330.800 329.160 C 330.800 328.919,331.340 328.217,332.000 327.600 C 332.660 326.983,333.200 326.203,333.200 325.866 C 333.200 325.530,333.560 325.140,334.000 325.000 C 334.440 324.860,334.800 324.488,334.800 324.173 C 334.800 323.858,334.980 323.600,335.200 323.600 C 335.420 323.600,335.600 323.330,335.600 323.000 C 335.600 322.670,335.750 322.400,335.932 322.400 C 336.115 322.400,336.519 321.905,336.830 321.300 C 337.140 320.695,337.711 319.909,338.097 319.553 C 338.484 319.197,338.800 318.612,338.800 318.253 C 338.800 317.894,338.968 317.600,339.173 317.600 C 339.378 317.600,339.654 317.261,339.785 316.848 C 339.916 316.434,340.378 315.686,340.812 315.186 C 341.245 314.687,341.600 313.985,341.600 313.627 C 341.600 313.269,341.960 312.717,342.400 312.400 C 342.840 312.083,343.200 311.503,343.200 311.112 C 343.200 310.720,343.380 310.400,343.600 310.400 C 343.820 310.400,344.000 310.040,344.000 309.600 C 344.000 309.160,344.180 308.800,344.400 308.800 C 344.620 308.800,344.800 308.530,344.800 308.200 C 344.800 307.870,344.980 307.600,345.200 307.600 C 345.420 307.600,345.600 307.330,345.600 307.000 C 345.600 306.670,345.780 306.400,346.000 306.400 C 346.220 306.400,346.400 306.130,346.400 305.800 C 346.400 305.470,346.580 305.200,346.800 305.200 C 347.020 305.200,347.200 304.840,347.200 304.400 C 347.200 303.960,347.380 303.600,347.600 303.600 C 347.820 303.600,348.000 303.240,348.000 302.800 C 348.000 302.360,348.180 302.000,348.400 302.000 C 348.620 302.000,348.800 301.640,348.800 301.200 C 348.800 300.760,348.980 300.400,349.200 300.400 C 349.420 300.400,349.600 300.040,349.600 299.600 C 349.600 299.160,349.780 298.800,350.000 298.800 C 350.220 298.800,350.400 298.440,350.400 298.000 C 350.400 297.560,350.580 297.200,350.800 297.200 C 351.020 297.200,351.200 296.840,351.200 296.400 C 351.200 295.960,351.380 295.600,351.600 295.600 C 351.820 295.600,352.000 295.240,352.000 294.800 C 352.000 294.360,352.180 294.000,352.400 294.000 C 352.620 294.000,352.800 293.640,352.800 293.200 C 352.800 292.760,352.980 292.400,353.200 292.400 C 353.420 292.400,353.600 292.051,353.600 291.624 C 353.600 291.197,353.780 290.736,354.000 290.600 C 354.220 290.464,354.400 290.003,354.400 289.576 C 354.400 289.149,354.580 288.800,354.800 288.800 C 355.020 288.800,355.200 288.440,355.200 288.000 C 355.200 287.560,355.360 287.200,355.555 287.200 C 355.750 287.200,355.996 286.705,356.102 286.100 C 356.360 284.628,357.726 281.033,358.090 280.870 C 358.250 280.798,358.498 279.853,358.642 278.770 C 358.785 277.686,359.060 276.800,359.252 276.800 C 359.443 276.800,359.600 276.361,359.600 275.824 C 359.600 275.287,359.780 274.736,360.000 274.600 C 360.220 274.464,360.400 273.913,360.400 273.376 C 360.400 272.839,360.580 272.400,360.800 272.400 C 361.020 272.400,361.200 271.871,361.200 271.224 C 361.200 270.577,361.380 269.936,361.600 269.800 C 361.820 269.664,362.000 268.933,362.000 268.176 C 362.000 267.419,362.180 266.800,362.400 266.800 C 362.620 266.800,362.800 266.271,362.800 265.624 C 362.800 264.977,362.980 264.336,363.200 264.200 C 363.420 264.064,363.600 263.333,363.600 262.576 C 363.600 261.819,363.780 261.200,364.000 261.200 C 364.220 261.200,364.400 260.401,364.400 259.424 C 364.400 258.447,364.580 257.536,364.800 257.400 C 365.020 257.264,365.200 256.533,365.200 255.776 C 365.200 255.019,365.380 254.400,365.600 254.400 C 365.820 254.400,366.000 253.500,366.000 252.400 C 366.000 251.300,366.180 250.400,366.400 250.400 C 366.620 250.400,366.800 249.421,366.800 248.224 C 366.800 247.027,366.980 245.936,367.200 245.800 C 367.420 245.664,367.600 244.483,367.600 243.176 C 367.600 241.869,367.767 240.800,367.972 240.800 C 368.380 240.800,368.714 236.584,369.033 227.400 C 369.148 224.100,369.412 221.229,369.621 221.020 C 370.133 220.507,370.114 210.517,369.600 210.200 C 369.361 210.053,369.200 207.470,369.200 203.800 C 369.200 200.130,369.039 197.547,368.800 197.400 C 368.580 197.264,368.400 195.633,368.400 193.776 C 368.400 191.792,368.235 190.400,368.000 190.400 C 367.775 190.400,367.600 189.275,367.600 187.824 C 367.600 186.407,367.420 185.136,367.200 185.000 C 366.980 184.864,366.800 183.863,366.800 182.776 C 366.800 181.689,366.620 180.800,366.400 180.800 C 366.180 180.800,366.000 179.990,366.000 179.000 C 366.000 178.010,365.820 177.200,365.600 177.200 C 365.380 177.200,365.200 176.401,365.200 175.424 C 365.200 174.447,365.020 173.536,364.800 173.400 C 364.580 173.264,364.400 172.443,364.400 171.576 C 364.400 170.709,364.220 170.000,364.000 170.000 C 363.780 170.000,363.600 169.280,363.600 168.400 C 363.600 167.520,363.420 166.800,363.200 166.800 C 362.980 166.800,362.800 166.260,362.800 165.600 C 362.800 164.940,362.620 164.400,362.400 164.400 C 362.180 164.400,362.000 163.770,362.000 163.000 C 362.000 162.230,361.820 161.600,361.600 161.600 C 361.380 161.600,361.200 161.060,361.200 160.400 C 361.200 159.740,361.020 159.200,360.800 159.200 C 360.580 159.200,360.400 158.660,360.400 158.000 C 360.400 157.340,360.220 156.800,360.000 156.800 C 359.780 156.800,359.600 156.260,359.600 155.600 C 359.600 154.940,359.420 154.400,359.200 154.400 C 358.980 154.400,358.800 153.954,358.800 153.408 C 358.800 152.540,358.453 151.399,357.216 148.200 C 356.572 146.534,356.049 145.318,354.843 142.682 C 354.160 141.187,353.600 139.702,353.600 139.382 C 353.600 139.062,353.420 138.800,353.200 138.800 C 352.980 138.800,352.800 138.440,352.800 138.000 C 352.800 137.560,352.620 137.200,352.400 137.200 C 352.180 137.200,352.000 136.840,352.000 136.400 C 352.000 135.960,351.820 135.600,351.600 135.600 C 351.380 135.600,351.200 135.240,351.200 134.800 C 351.200 134.360,351.020 134.000,350.800 134.000 C 350.580 134.000,350.400 133.640,350.400 133.200 C 350.400 132.760,350.220 132.400,350.000 132.400 C 349.780 132.400,349.600 132.040,349.600 131.600 C 349.600 131.160,349.420 130.800,349.200 130.800 C 348.980 130.800,348.800 130.440,348.800 130.000 C 348.800 129.560,348.620 129.200,348.400 129.200 C 348.180 129.200,348.000 128.840,348.000 128.400 C 348.000 127.960,347.820 127.600,347.600 127.600 C 347.380 127.600,347.200 127.330,347.200 127.000 C 347.200 126.670,347.020 126.400,346.800 126.400 C 346.580 126.400,346.400 126.040,346.400 125.600 C 346.400 125.160,346.220 124.800,346.000 124.800 C 345.780 124.800,345.600 124.564,345.600 124.275 C 345.600 123.987,345.240 123.364,344.800 122.892 C 344.360 122.420,344.000 121.756,344.000 121.417 C 344.000 121.078,343.820 120.800,343.600 120.800 C 343.380 120.800,343.200 120.506,343.200 120.147 C 343.200 119.788,342.869 119.203,342.464 118.847 C 342.059 118.491,341.606 117.705,341.456 117.100 C 341.307 116.495,341.008 116.000,340.792 116.000 C 340.577 116.000,340.400 115.804,340.400 115.564 C 340.400 115.033,337.277 110.455,336.301 109.553 C 335.915 109.197,335.600 108.652,335.600 108.341 C 335.600 108.031,335.240 107.517,334.800 107.200 C 334.360 106.883,334.000 106.420,334.000 106.171 C 334.000 105.922,333.460 105.154,332.800 104.463 C 332.140 103.772,331.600 103.047,331.600 102.852 C 331.600 102.656,330.880 101.755,330.000 100.848 C 329.120 99.941,328.400 99.051,328.400 98.870 C 328.400 98.689,327.486 97.565,326.369 96.371 C 325.252 95.177,323.947 93.692,323.469 93.071 C 321.280 90.225,320.416 89.509,319.459 89.750 C 318.931 89.882,310.879 97.757,301.103 107.702 L 283.686 125.419 284.481 126.400 C 284.917 126.940,286.104 128.341,287.116 129.514 C 288.129 130.688,289.227 132.042,289.556 132.524 C 289.885 133.006,290.263 133.490,290.396 133.600 C 290.529 133.710,291.071 134.430,291.600 135.200 C 292.129 135.970,292.675 136.690,292.814 136.800 C 295.108 138.613,305.308 156.824,308.442 164.700 C 309.283 166.815,309.622 167.652,309.979 168.500 C 310.451 169.623,312.515 175.988,313.190 178.400 C 313.466 179.390,313.840 180.650,314.020 181.200 C 314.882 183.830,316.645 193.117,317.665 200.400 C 318.387 205.559,318.384 225.238,317.660 230.600 C 316.672 237.919,314.921 247.253,314.020 250.000 C 313.840 250.550,313.468 251.810,313.193 252.800 C 312.353 255.823,311.183 259.362,310.781 260.095 C 310.571 260.477,310.400 261.064,310.400 261.400 C 310.400 261.736,310.241 262.323,310.047 262.705 C 309.718 263.352,309.324 264.283,308.442 266.500 C 303.821 278.114,294.763 292.940,286.387 302.600 C 271.619 319.632,254.449 331.863,233.200 340.487 C 232.650 340.711,231.887 341.052,231.505 341.247 C 231.123 341.441,230.536 341.600,230.200 341.600 C 229.864 341.600,229.277 341.771,228.895 341.981 C 228.162 342.383,224.623 343.553,221.600 344.393 C 220.610 344.668,219.350 345.040,218.800 345.221 C 217.742 345.568,214.163 346.365,209.200 347.358 C 193.877 350.426,172.627 350.193,157.000 346.788 C 156.120 346.596,154.410 346.225,153.200 345.963 C 151.990 345.701,150.010 345.176,148.800 344.797 C 147.590 344.418,145.790 343.883,144.800 343.608 C 143.810 343.333,142.640 342.958,142.200 342.775 C 141.760 342.591,140.500 342.148,139.400 341.791 C 138.300 341.434,136.860 340.906,136.200 340.618 C 135.540 340.330,134.370 339.861,133.600 339.576 C 126.213 336.844,114.668 330.393,105.600 323.929 C 99.568 319.629,87.839 308.903,83.370 303.600 C 80.944 300.722,77.324 296.153,76.398 294.800 C 75.870 294.030,75.325 293.310,75.187 293.200 C 72.986 291.449,60.000 267.507,60.000 265.199 C 60.000 264.974,59.841 264.477,59.647 264.095 C 59.171 263.160,58.582 261.693,58.000 260.000 C 57.736 259.230,57.376 258.240,57.200 257.800 C 48.616 236.278,48.616 194.922,57.200 173.400 C 57.376 172.960,57.736 171.970,58.000 171.200 C 58.264 170.430,58.643 169.395,58.840 168.900 C 59.038 168.405,59.362 167.595,59.560 167.100 C 59.757 166.605,60.144 165.570,60.418 164.800 C 62.497 158.957,73.157 139.614,75.187 138.000 C 75.325 137.890,75.871 137.170,76.399 136.400 C 86.443 121.762,105.819 105.155,122.600 96.800 C 124.580 95.814,126.260 94.871,126.333 94.704 C 126.407 94.537,126.716 94.400,127.021 94.400 C 127.326 94.400,128.166 94.073,128.888 93.674 C 130.068 93.021,135.661 90.761,141.000 88.779 C 156.532 83.013,183.068 80.100,199.200 82.389 C 200.630 82.592,203.330 82.969,205.200 83.228 C 212.344 84.217,226.401 87.846,231.500 90.017 C 232.469 90.430,233.862 90.991,235.300 91.549 C 243.450 94.713,256.500 102.078,263.991 107.743 C 267.219 110.184,267.188 110.160,269.959 112.468 C 271.367 113.641,273.047 115.030,273.693 115.556 L 274.868 116.511 292.634 98.762 C 303.353 88.053,310.400 80.716,310.400 80.267 C 310.400 79.524,309.085 78.121,306.963 76.600 C 306.349 76.160,305.076 75.035,304.134 74.100 C 303.192 73.165,302.236 72.400,302.011 72.400 C 301.785 72.400,301.600 72.220,301.600 72.000 C 301.600 71.780,301.414 71.600,301.187 71.600 C 300.959 71.600,300.143 70.970,299.373 70.200 C 298.603 69.430,297.822 68.800,297.637 68.800 C 297.452 68.800,296.613 68.170,295.772 67.400 C 294.931 66.630,294.049 66.000,293.810 66.000 C 293.572 66.000,293.117 65.640,292.800 65.200 C 292.483 64.760,292.008 64.400,291.745 64.400 C 291.482 64.400,291.207 64.250,291.133 64.066 C 290.908 63.502,285.447 60.000,284.793 60.000 C 284.454 60.000,283.917 59.640,283.600 59.200 C 283.283 58.760,282.743 58.400,282.400 58.400 C 282.057 58.400,281.517 58.040,281.200 57.600 C 280.883 57.160,280.303 56.800,279.912 56.800 C 279.520 56.800,279.200 56.620,279.200 56.400 C 279.200 56.180,278.922 56.000,278.583 56.000 C 278.244 56.000,277.580 55.640,277.108 55.200 C 276.636 54.760,276.013 54.400,275.725 54.400 C 275.436 54.400,275.200 54.220,275.200 54.000 C 275.200 53.780,274.930 53.600,274.600 53.600 C 274.270 53.600,274.000 53.420,274.000 53.200 C 274.000 52.980,273.640 52.800,273.200 52.800 C 272.760 52.800,272.400 52.620,272.400 52.400 C 272.400 52.180,272.040 52.000,271.600 52.000 C 271.160 52.000,270.800 51.820,270.800 51.600 C 270.800 51.380,270.440 51.200,270.000 51.200 C 269.560 51.200,269.200 51.020,269.200 50.800 C 269.200 50.580,268.840 50.400,268.400 50.400 C 267.960 50.400,267.600 50.220,267.600 50.000 C 267.600 49.780,267.240 49.600,266.800 49.600 C 266.360 49.600,266.000 49.420,266.000 49.200 C 266.000 48.980,265.640 48.800,265.200 48.800 C 264.760 48.800,264.400 48.620,264.400 48.400 C 264.400 48.180,264.040 48.000,263.600 48.000 C 263.160 48.000,262.800 47.820,262.800 47.600 C 262.800 47.380,262.440 47.200,262.000 47.200 C 261.560 47.200,261.200 47.020,261.200 46.800 C 261.200 46.580,260.964 46.400,260.675 46.400 C 260.187 46.400,257.482 45.259,255.917 44.393 C 255.542 44.185,254.507 43.899,253.617 43.756 C 252.728 43.614,252.000 43.341,252.000 43.149 C 252.000 42.957,251.651 42.800,251.224 42.800 C 250.797 42.800,250.336 42.620,250.200 42.400 C 250.064 42.180,249.513 42.000,248.976 42.000 C 248.439 42.000,248.000 41.820,248.000 41.600 C 248.000 41.380,247.460 41.200,246.800 41.200 C 246.140 41.200,245.600 41.020,245.600 40.800 C 245.600 40.580,245.060 40.400,244.400 40.400 C 243.740 40.400,243.200 40.220,243.200 40.000 C 243.200 39.780,242.761 39.600,242.224 39.600 C 241.687 39.600,241.136 39.420,241.000 39.200 C 240.864 38.980,240.313 38.800,239.776 38.800 C 239.239 38.800,238.800 38.620,238.800 38.400 C 238.800 38.180,238.080 38.000,237.200 38.000 C 236.320 38.000,235.600 37.820,235.600 37.600 C 235.600 37.380,235.060 37.200,234.400 37.200 C 233.740 37.200,233.200 37.020,233.200 36.800 C 233.200 36.580,232.480 36.400,231.600 36.400 C 230.720 36.400,230.000 36.220,230.000 36.000 C 230.000 35.780,229.280 35.600,228.400 35.600 C 227.520 35.600,226.800 35.420,226.800 35.200 C 226.800 34.980,226.001 34.800,225.024 34.800 C 224.047 34.800,223.136 34.620,223.000 34.400 C 222.864 34.180,221.953 34.000,220.976 34.000 C 219.999 34.000,219.200 33.820,219.200 33.600 C 219.200 33.380,218.311 33.200,217.224 33.200 C 216.137 33.200,215.136 33.020,215.000 32.800 C 214.864 32.580,213.413 32.400,211.776 32.400 C 210.059 32.400,208.800 32.231,208.800 32.000 C 208.800 31.769,207.541 31.600,205.824 31.600 C 204.187 31.600,202.736 31.420,202.600 31.200 C 202.453 30.961,199.870 30.800,196.200 30.800 C 192.530 30.800,189.947 30.639,189.800 30.400 C 189.513 29.936,179.889 29.843,179.435 30.300 M177.317 133.237 C 168.951 133.841,157.354 136.760,151.905 139.634 C 151.523 139.835,150.938 140.000,150.605 140.000 C 150.272 140.000,150.000 140.180,150.000 140.400 C 150.000 140.620,149.748 140.800,149.441 140.800 C 148.910 140.800,146.536 141.975,143.000 143.987 C 128.279 152.364,114.313 168.133,108.358 183.100 C 107.476 185.317,107.082 186.248,106.753 186.895 C 106.559 187.277,106.400 187.941,106.400 188.371 C 106.400 188.801,106.220 189.264,106.000 189.400 C 105.780 189.536,105.600 190.076,105.600 190.600 C 105.600 191.124,105.441 191.651,105.246 191.771 C 105.051 191.892,104.790 192.487,104.664 193.095 C 104.539 193.703,104.239 195.100,104.000 196.200 C 103.020 200.690,102.752 202.494,102.110 208.900 C 101.286 217.118,101.876 225.264,104.000 235.000 C 104.239 236.100,104.539 237.497,104.664 238.105 C 104.790 238.713,105.051 239.308,105.246 239.429 C 105.441 239.549,105.600 240.076,105.600 240.600 C 105.600 241.124,105.780 241.664,106.000 241.800 C 106.220 241.936,106.400 242.399,106.400 242.829 C 106.400 243.259,106.559 243.923,106.753 244.305 C 107.082 244.952,107.476 245.883,108.358 248.100 C 115.944 267.167,133.735 284.473,154.000 292.497 C 154.550 292.715,155.313 293.052,155.695 293.247 C 156.077 293.441,156.741 293.600,157.171 293.600 C 157.601 293.600,158.051 293.759,158.170 293.952 C 158.290 294.146,158.796 294.403,159.294 294.524 C 159.792 294.645,160.920 294.950,161.800 295.202 C 163.319 295.637,164.279 295.860,168.700 296.807 C 205.781 304.744,246.920 282.671,260.781 247.400 C 261.300 246.080,261.877 244.829,262.062 244.620 C 262.248 244.411,262.400 243.837,262.400 243.344 C 262.400 242.851,262.559 242.349,262.754 242.229 C 262.949 242.108,263.204 241.513,263.321 240.905 C 263.438 240.297,263.741 239.080,263.994 238.200 C 267.819 224.880,268.118 209.171,264.796 196.000 C 264.546 195.010,264.245 193.613,264.127 192.896 C 264.008 192.179,263.751 191.494,263.556 191.373 C 263.360 191.252,263.200 190.724,263.200 190.200 C 263.200 189.676,263.020 189.136,262.800 189.000 C 262.580 188.864,262.400 188.349,262.400 187.856 C 262.400 187.363,262.248 186.789,262.062 186.580 C 261.877 186.371,261.300 185.120,260.781 183.800 C 258.267 177.401,252.296 167.523,248.099 162.816 L 247.198 161.806 229.235 179.765 L 211.272 197.725 212.623 200.271 C 219.965 214.110,216.658 230.581,204.529 240.585 C 201.855 242.791,196.780 245.495,193.800 246.303 C 192.920 246.542,191.459 246.931,190.554 247.168 C 186.601 248.205,176.818 247.353,173.000 245.640 C 167.419 243.137,165.207 241.675,161.786 238.229 C 157.651 234.062,154.952 229.526,153.677 224.600 C 153.450 223.720,153.069 222.259,152.832 221.354 C 152.274 219.228,152.274 211.972,152.832 209.846 C 153.069 208.941,153.450 207.480,153.677 206.600 C 155.799 198.397,162.524 190.472,170.600 186.655 C 179.879 182.269,190.680 182.577,199.942 187.490 L 202.532 188.864 220.266 171.134 C 230.020 161.382,238.000 153.190,238.000 152.930 C 238.000 152.417,232.051 147.845,228.243 145.431 C 221.138 140.927,212.127 137.150,204.000 135.268 C 198.006 133.881,196.307 133.615,190.800 133.204 C 184.864 132.762,183.878 132.764,177.317 133.237 " stroke="none" fill="#e94141" fill-rule="evenodd"></path><path id="path3" d="M292.998 98.425 C 283.539 107.898,275.519 115.807,275.175 115.999 C 274.708 116.259,273.843 115.735,271.775 113.939 C 268.742 111.306,266.800 109.828,266.800 110.154 C 266.800 110.269,267.623 110.992,268.630 111.760 C 269.636 112.529,271.359 113.976,272.459 114.977 C 274.010 116.388,274.609 116.713,275.129 116.423 C 275.863 116.014,310.721 81.200,310.397 81.200 C 310.287 81.200,302.457 88.951,292.998 98.425 M181.500 81.897 C 183.095 81.973,185.705 81.973,187.300 81.897 C 188.895 81.821,187.590 81.759,184.400 81.759 C 181.210 81.759,179.905 81.821,181.500 81.897 M169.800 82.417 C 169.068 82.614,169.769 82.653,171.600 82.518 C 173.250 82.396,174.675 82.229,174.767 82.148 C 175.077 81.872,171.008 82.093,169.800 82.417 M194.033 82.148 C 194.125 82.229,195.550 82.396,197.200 82.518 C 199.031 82.653,199.732 82.614,199.000 82.417 C 197.792 82.093,193.723 81.872,194.033 82.148 M163.400 83.220 C 162.611 83.435,163.022 83.470,164.600 83.323 C 165.920 83.200,167.075 83.032,167.167 82.950 C 167.464 82.682,164.634 82.885,163.400 83.220 M203.400 83.223 C 205.426 83.642,207.063 83.623,205.400 83.200 C 204.740 83.032,203.660 82.894,203.000 82.893 C 201.991 82.892,202.055 82.945,203.400 83.223 M159.200 84.000 L 158.200 84.320 159.200 84.332 C 159.750 84.338,160.560 84.189,161.000 84.000 L 161.800 83.656 161.000 83.668 C 160.560 83.674,159.750 83.824,159.200 84.000 M208.200 84.000 C 208.640 84.189,209.450 84.338,210.000 84.332 L 211.000 84.320 210.000 84.000 C 209.450 83.824,208.640 83.674,208.200 83.668 L 207.400 83.656 208.200 84.000 M155.200 84.800 C 154.396 85.057,154.357 85.123,155.000 85.132 C 155.440 85.138,156.160 84.989,156.600 84.800 C 157.619 84.362,156.568 84.362,155.200 84.800 M212.200 84.800 C 212.640 84.989,213.360 85.138,213.800 85.132 C 214.443 85.123,214.404 85.057,213.600 84.800 C 212.232 84.362,211.181 84.362,212.200 84.800 M215.800 85.600 C 216.240 85.789,216.960 85.938,217.400 85.932 C 218.043 85.923,218.004 85.857,217.200 85.600 C 215.832 85.162,214.781 85.162,215.800 85.600 M148.800 86.400 C 147.976 86.664,147.941 86.726,148.600 86.754 C 149.040 86.773,149.670 86.613,150.000 86.400 C 150.701 85.947,150.214 85.947,148.800 86.400 M218.800 86.382 C 219.130 86.605,219.745 86.791,220.167 86.794 C 221.190 86.802,220.871 86.573,219.400 86.244 C 218.524 86.048,218.362 86.085,218.800 86.382 M146.000 87.200 C 145.176 87.464,145.141 87.526,145.800 87.554 C 146.240 87.573,146.870 87.413,147.200 87.200 C 147.901 86.747,147.414 86.747,146.000 87.200 M221.800 87.200 C 222.240 87.389,222.870 87.544,223.200 87.544 C 223.578 87.544,223.504 87.417,223.000 87.200 C 222.560 87.011,221.930 86.856,221.600 86.856 C 221.222 86.856,221.296 86.983,221.800 87.200 M142.043 88.405 C 140.857 88.831,139.777 89.304,139.643 89.454 C 139.509 89.604,139.750 89.601,140.178 89.446 C 140.606 89.292,141.821 88.882,142.878 88.537 C 143.935 88.191,144.800 87.839,144.800 87.754 C 144.800 87.482,144.245 87.613,142.043 88.405 M224.000 87.736 C 224.000 87.987,229.291 89.642,229.482 89.451 C 229.612 89.321,227.905 88.712,224.900 87.815 C 224.405 87.667,224.000 87.631,224.000 87.736 M135.697 90.703 C 134.321 91.267,133.263 91.796,133.346 91.880 C 133.430 91.963,134.826 91.494,136.449 90.836 C 138.072 90.179,139.130 89.650,138.800 89.659 C 138.470 89.669,137.074 90.139,135.697 90.703 M312.193 96.100 L 307.800 100.600 312.300 96.207 C 316.480 92.126,316.982 91.600,316.693 91.600 C 316.634 91.600,314.609 93.625,312.193 96.100 M130.853 92.653 C 130.113 92.976,129.601 93.334,129.716 93.449 C 129.831 93.564,130.616 93.293,131.462 92.847 C 133.235 91.911,132.841 91.786,130.853 92.653 M236.054 92.187 C 236.367 92.500,239.200 93.623,239.200 93.435 C 239.200 93.191,236.769 92.000,236.272 92.000 C 236.049 92.000,235.951 92.084,236.054 92.187 M248.000 97.779 C 248.000 97.889,248.540 98.259,249.200 98.600 C 249.860 98.941,250.400 99.131,250.400 99.021 C 250.400 98.911,249.860 98.541,249.200 98.200 C 248.540 97.859,248.000 97.669,248.000 97.779 M118.000 99.233 L 117.000 100.048 118.300 99.414 C 119.015 99.065,119.600 98.694,119.600 98.590 C 119.600 98.192,118.963 98.448,118.000 99.233 M251.600 99.967 C 252.563 100.752,253.200 101.008,253.200 100.610 C 253.200 100.506,252.615 100.135,251.900 99.786 L 250.600 99.152 251.600 99.967 M113.582 101.835 C 110.316 103.845,104.400 108.019,104.400 108.313 C 104.400 108.415,104.805 108.205,105.300 107.847 C 106.207 107.192,114.851 101.410,116.249 100.524 C 116.662 100.261,116.902 100.036,116.782 100.024 C 116.661 100.011,115.221 100.826,113.582 101.835 M255.000 101.882 C 255.701 102.582,264.421 108.358,264.175 107.959 C 264.045 107.749,262.107 106.354,259.869 104.860 C 255.445 101.907,254.361 101.244,255.000 101.882 M292.390 116.218 C 287.446 121.177,283.452 125.429,283.516 125.666 C 283.580 125.903,284.370 126.840,285.271 127.749 L 286.910 129.400 285.260 127.400 L 283.611 125.400 292.702 116.300 C 297.702 111.295,301.700 107.200,301.587 107.200 C 301.473 107.200,297.335 111.258,292.390 116.218 M102.000 110.054 L 100.200 111.685 101.894 110.413 C 103.368 109.307,104.314 108.374,103.924 108.412 C 103.856 108.419,102.990 109.158,102.000 110.054 M91.861 118.820 C 89.102 121.471,85.906 124.756,84.759 126.120 C 83.500 127.616,84.054 127.138,86.155 124.916 C 88.070 122.889,91.381 119.604,93.514 117.616 C 95.647 115.627,97.276 114.000,97.135 114.000 C 96.993 114.000,94.620 116.169,91.861 118.820 M287.206 129.869 C 287.209 130.051,287.860 130.920,288.652 131.800 C 290.105 133.414,289.791 132.760,288.109 130.669 C 287.609 130.047,287.203 129.687,287.206 129.869 M78.577 133.500 C 76.417 136.200,76.276 136.400,76.528 136.400 C 76.652 136.400,77.584 135.320,78.600 134.000 C 80.787 131.158,80.768 130.760,78.577 133.500 M177.111 133.093 C 178.051 133.178,179.491 133.177,180.311 133.091 C 181.130 133.005,180.360 132.936,178.600 132.937 C 176.840 132.939,176.170 133.009,177.111 133.093 M188.900 133.091 C 189.725 133.178,191.075 133.178,191.900 133.091 C 192.725 133.005,192.050 132.934,190.400 132.934 C 188.750 132.934,188.075 133.005,188.900 133.091 M194.100 133.476 C 194.485 133.576,195.115 133.576,195.500 133.476 C 195.885 133.375,195.570 133.293,194.800 133.293 C 194.030 133.293,193.715 133.375,194.100 133.476 M169.000 134.000 L 168.200 134.344 169.000 134.332 C 169.440 134.326,170.250 134.176,170.800 134.000 L 171.800 133.680 170.800 133.668 C 170.250 133.662,169.440 133.811,169.000 134.000 M198.000 134.000 C 198.550 134.176,199.360 134.326,199.800 134.332 L 200.600 134.344 199.800 134.000 C 199.360 133.811,198.550 133.662,198.000 133.668 L 197.000 133.680 198.000 134.000 M165.400 134.800 C 164.381 135.238,165.432 135.238,166.800 134.800 C 167.604 134.543,167.643 134.477,167.000 134.468 C 166.560 134.462,165.840 134.611,165.400 134.800 M202.200 134.800 C 202.640 134.989,203.360 135.144,203.800 135.144 L 204.600 135.144 203.800 134.800 C 203.360 134.611,202.640 134.456,202.200 134.456 L 201.400 134.456 202.200 134.800 M162.200 135.600 C 161.696 135.817,161.622 135.944,162.000 135.944 C 162.330 135.944,162.960 135.789,163.400 135.600 C 163.904 135.383,163.978 135.256,163.600 135.256 C 163.270 135.256,162.640 135.411,162.200 135.600 M204.833 135.344 C 204.925 135.423,205.540 135.608,206.200 135.756 C 207.076 135.952,207.238 135.915,206.800 135.618 C 206.260 135.253,204.432 134.998,204.833 135.344 M208.400 136.400 C 208.730 136.613,209.270 136.788,209.600 136.788 C 210.133 136.788,210.133 136.745,209.600 136.400 C 209.270 136.187,208.730 136.012,208.400 136.012 C 207.867 136.012,207.867 136.055,208.400 136.400 M210.800 137.200 C 211.130 137.413,211.670 137.588,212.000 137.588 C 212.533 137.588,212.533 137.545,212.000 137.200 C 211.670 136.987,211.130 136.812,210.800 136.812 C 210.267 136.812,210.267 136.855,210.800 137.200 M295.492 141.300 C 298.391 145.610,300.182 147.970,298.569 145.354 C 296.411 141.855,292.968 136.812,292.733 136.806 C 292.586 136.803,293.828 138.825,295.492 141.300 M72.355 142.103 C 70.081 145.626,67.637 149.893,69.292 147.450 C 72.055 143.372,75.440 138.001,75.244 138.003 C 75.110 138.004,73.810 139.849,72.355 142.103 M143.800 143.200 C 143.140 143.637,142.780 143.992,143.000 143.988 C 143.401 143.982,145.576 142.423,145.200 142.412 C 145.090 142.408,144.460 142.763,143.800 143.200 M223.600 142.541 C 223.600 142.646,224.365 143.161,225.300 143.686 C 226.235 144.211,227.540 144.968,228.200 145.368 L 229.400 146.095 228.400 145.263 C 227.282 144.332,223.600 142.244,223.600 142.541 M138.331 146.583 C 136.206 148.004,134.358 149.345,134.223 149.562 C 134.002 149.921,141.276 145.145,142.180 144.339 C 143.161 143.464,141.869 144.217,138.331 146.583 M229.800 146.275 C 230.020 146.490,231.955 147.969,234.100 149.561 C 236.245 151.153,238.000 152.668,238.000 152.926 C 238.000 153.185,230.035 161.407,220.300 171.198 L 202.600 189.000 220.500 171.202 C 230.345 161.413,238.400 153.194,238.400 152.939 C 238.400 152.683,237.545 151.774,236.500 150.917 C 233.777 148.685,228.597 145.096,229.800 146.275 M299.215 147.000 C 299.217 147.220,299.586 147.850,300.036 148.400 C 300.579 149.064,300.715 149.131,300.440 148.600 C 299.766 147.295,299.212 146.572,299.215 147.000 M67.800 149.600 C 67.459 150.260,67.269 150.800,67.379 150.800 C 67.489 150.800,67.859 150.260,68.200 149.600 C 68.541 148.940,68.731 148.400,68.621 148.400 C 68.511 148.400,68.141 148.940,67.800 149.600 M301.400 150.800 C 301.741 151.460,302.111 152.000,302.221 152.000 C 302.331 152.000,302.141 151.460,301.800 150.800 C 301.459 150.140,301.089 149.600,300.979 149.600 C 300.869 149.600,301.059 150.140,301.400 150.800 M130.175 152.900 L 129.000 154.200 130.300 153.025 C 131.512 151.930,131.784 151.600,131.475 151.600 C 131.406 151.600,130.821 152.185,130.175 152.900 M65.400 154.000 C 65.059 154.660,64.869 155.200,64.979 155.200 C 65.089 155.200,65.459 154.660,65.800 154.000 C 66.141 153.340,66.331 152.800,66.221 152.800 C 66.111 152.800,65.741 153.340,65.400 154.000 M125.600 157.000 C 123.961 158.650,122.710 160.000,122.820 160.000 C 122.930 160.000,124.361 158.650,126.000 157.000 C 127.639 155.350,128.890 154.000,128.780 154.000 C 128.670 154.000,127.239 155.350,125.600 157.000 M121.375 161.700 L 120.200 163.000 121.500 161.825 C 122.712 160.730,122.984 160.400,122.675 160.400 C 122.606 160.400,122.021 160.985,121.375 161.700 M61.423 162.206 C 60.560 164.272,60.674 164.506,61.647 162.662 C 62.093 161.816,62.365 161.032,62.252 160.919 C 62.139 160.806,61.766 161.385,61.423 162.206 M229.194 179.415 C 219.407 189.214,211.317 197.359,211.216 197.515 C 211.115 197.672,219.179 189.700,229.136 179.800 L 247.240 161.800 247.984 162.700 C 248.393 163.195,248.866 163.600,249.034 163.600 C 249.202 163.600,248.917 163.150,248.400 162.600 C 247.883 162.050,247.354 161.600,247.224 161.600 C 247.094 161.600,238.980 169.617,229.194 179.415 M249.940 165.116 C 250.433 165.809,251.044 166.504,251.297 166.660 C 251.550 166.817,251.354 166.377,250.860 165.684 C 250.367 164.991,249.756 164.296,249.503 164.140 C 249.250 163.983,249.446 164.423,249.940 165.116 M117.919 165.900 C 117.307 166.608,113.619 172.094,113.012 173.200 C 112.266 174.559,113.599 172.808,116.134 169.100 C 118.678 165.378,119.240 164.372,117.919 165.900 M251.962 167.800 C 252.190 168.240,252.754 169.050,253.215 169.600 C 253.787 170.282,253.922 170.346,253.638 169.800 C 253.410 169.360,252.846 168.550,252.385 168.000 C 251.813 167.318,251.678 167.254,251.962 167.800 M310.657 171.500 C 310.978 172.792,311.962 175.146,311.984 174.675 C 312.008 174.189,310.733 170.400,310.546 170.400 C 310.457 170.400,310.507 170.895,310.657 171.500 M254.615 171.900 C 255.956 173.985,256.400 174.577,256.400 174.280 C 256.400 173.896,254.355 170.800,254.101 170.800 C 253.995 170.800,254.226 171.295,254.615 171.900 M111.440 175.998 C 110.840 177.099,110.436 178.000,110.541 178.000 C 110.808 178.000,112.843 174.310,112.671 174.137 C 112.593 174.060,112.039 174.897,111.440 175.998 M312.244 176.200 C 312.573 177.671,312.802 177.990,312.794 176.967 C 312.791 176.545,312.605 175.930,312.382 175.600 C 312.085 175.162,312.048 175.324,312.244 176.200 M55.511 178.861 C 55.141 180.241,54.903 181.436,54.982 181.515 C 55.198 181.731,56.463 177.190,56.313 176.739 C 56.242 176.525,55.881 177.480,55.511 178.861 M313.044 179.000 C 313.373 180.471,313.602 180.790,313.594 179.767 C 313.591 179.345,313.405 178.730,313.182 178.400 C 312.885 177.962,312.848 178.124,313.044 179.000 M313.867 182.000 C 314.248 184.101,314.836 185.322,314.542 183.400 C 314.408 182.520,314.144 181.530,313.956 181.200 C 313.748 180.835,313.713 181.149,313.867 182.000 M54.449 182.600 C 54.416 183.040,54.296 183.850,54.183 184.400 L 53.977 185.400 54.406 184.419 C 54.642 183.879,54.761 183.069,54.672 182.619 C 54.513 181.821,54.507 181.821,54.449 182.600 M314.828 186.033 C 314.844 186.565,315.019 187.360,315.219 187.800 C 315.471 188.358,315.507 188.115,315.338 187.000 C 315.055 185.143,314.787 184.636,314.828 186.033 M53.649 186.200 C 53.616 186.640,53.496 187.450,53.383 188.000 L 53.177 189.000 53.606 188.019 C 53.842 187.479,53.961 186.669,53.872 186.219 C 53.713 185.421,53.707 185.421,53.649 186.200 M315.628 189.833 C 315.644 190.475,315.816 191.360,316.010 191.800 C 316.247 192.334,316.286 192.002,316.127 190.800 C 315.846 188.680,315.588 188.180,315.628 189.833 M52.854 190.000 C 52.819 190.550,52.696 191.450,52.583 192.000 L 52.377 193.000 52.807 192.015 C 53.043 191.474,53.165 190.574,53.078 190.015 L 52.920 189.000 52.854 190.000 M264.012 193.200 C 264.012 193.530,264.187 194.070,264.400 194.400 C 264.745 194.933,264.788 194.933,264.788 194.400 C 264.788 194.070,264.613 193.530,264.400 193.200 C 264.055 192.667,264.012 192.667,264.012 193.200 M316.469 194.000 C 316.456 194.550,316.595 195.720,316.777 196.600 C 316.989 197.626,317.116 197.841,317.131 197.200 C 317.144 196.650,317.005 195.480,316.823 194.600 C 316.611 193.574,316.484 193.359,316.469 194.000 M52.093 194.800 C 52.093 195.570,52.175 195.885,52.276 195.500 C 52.376 195.115,52.376 194.485,52.276 194.100 C 52.175 193.715,52.093 194.030,52.093 194.800 M264.834 196.200 C 264.822 196.640,264.987 197.270,265.200 197.600 C 265.714 198.395,265.714 197.396,265.200 196.200 L 264.856 195.400 264.834 196.200 M103.429 197.029 C 103.281 197.615,103.251 198.184,103.361 198.294 C 103.471 198.404,103.681 198.015,103.829 197.429 C 103.976 196.842,104.006 196.273,103.896 196.163 C 103.786 196.053,103.576 196.442,103.429 197.029 M265.668 200.000 C 265.662 200.550,265.811 201.360,266.000 201.800 L 266.344 202.600 266.332 201.800 C 266.326 201.360,266.176 200.550,266.000 200.000 L 265.680 199.000 265.668 200.000 M317.473 202.200 C 317.596 203.960,317.765 205.475,317.849 205.567 C 318.136 205.884,317.953 202.194,317.601 200.600 C 317.342 199.425,317.308 199.850,317.473 202.200 M102.622 201.022 C 102.472 201.825,102.438 202.572,102.548 202.682 C 102.658 202.792,102.872 202.225,103.022 201.422 C 103.173 200.619,103.206 199.873,103.096 199.763 C 102.986 199.653,102.773 200.219,102.622 201.022 M50.988 202.988 C 50.831 204.664,50.793 206.126,50.903 206.236 C 51.013 206.346,51.231 205.064,51.388 203.388 C 51.545 201.712,51.584 200.250,51.474 200.140 C 51.364 200.030,51.145 201.312,50.988 202.988 M266.681 206.800 C 266.804 208.450,266.971 209.875,267.052 209.967 C 267.331 210.281,267.154 207.001,266.806 205.400 C 266.548 204.214,266.516 204.576,266.681 206.800 M101.793 207.338 C 101.638 208.987,101.592 210.575,101.690 210.868 C 101.788 211.161,101.994 209.891,102.148 208.047 C 102.302 206.203,102.348 204.615,102.251 204.517 C 102.153 204.420,101.947 205.689,101.793 207.338 M318.167 215.600 C 318.167 219.890,318.226 221.645,318.298 219.500 C 318.370 217.355,318.370 213.845,318.298 211.700 C 318.226 209.555,318.167 211.310,318.167 215.600 M50.559 215.600 C 50.559 218.790,50.621 220.095,50.697 218.500 C 50.773 216.905,50.773 214.295,50.697 212.700 C 50.621 211.105,50.559 212.410,50.559 215.600 M101.623 221.833 C 101.636 222.915,101.803 224.520,101.995 225.400 C 102.244 226.543,102.280 226.028,102.121 223.600 C 101.872 219.812,101.588 218.803,101.623 221.833 M266.658 223.959 C 266.507 225.586,266.461 226.995,266.557 227.090 C 266.806 227.339,267.321 222.163,267.110 221.530 C 267.013 221.239,266.810 222.332,266.658 223.959 M50.883 226.200 C 50.870 227.080,51.003 228.610,51.180 229.600 C 51.630 232.131,51.665 229.464,51.218 226.600 C 50.915 224.652,50.906 224.641,50.883 226.200 M317.458 228.359 C 317.307 229.986,317.261 231.395,317.357 231.490 C 317.606 231.739,318.121 226.563,317.910 225.930 C 317.813 225.639,317.610 226.732,317.458 228.359 M102.468 229.000 C 102.474 229.440,102.624 230.250,102.800 230.800 L 103.120 231.800 103.132 230.800 C 103.138 230.250,102.989 229.440,102.800 229.000 L 102.456 228.200 102.468 229.000 M265.778 230.178 C 265.627 230.981,265.594 231.727,265.704 231.837 C 265.814 231.947,266.027 231.381,266.178 230.578 C 266.328 229.775,266.362 229.028,266.252 228.918 C 266.142 228.808,265.928 229.375,265.778 230.178 M103.234 233.200 C 103.246 233.530,103.411 234.160,103.600 234.600 L 103.944 235.400 103.966 234.600 C 103.978 234.160,103.813 233.530,103.600 233.200 C 103.255 232.667,103.215 232.667,103.234 233.200 M265.073 233.753 C 264.923 234.145,264.811 234.766,264.825 235.133 C 264.842 235.575,264.981 235.474,265.237 234.834 C 265.449 234.303,265.561 233.682,265.485 233.454 C 265.409 233.227,265.224 233.361,265.073 233.753 M316.615 235.415 C 316.461 236.654,316.417 237.750,316.519 237.852 C 316.620 237.954,316.830 237.023,316.985 235.785 C 317.139 234.546,317.183 233.450,317.081 233.348 C 316.980 233.246,316.770 234.177,316.615 235.415 M52.093 236.400 C 52.093 237.170,52.175 237.485,52.276 237.100 C 52.376 236.715,52.376 236.085,52.276 235.700 C 52.175 235.315,52.093 235.630,52.093 236.400 M264.200 237.200 C 264.050 237.673,264.017 238.150,264.127 238.260 C 264.237 238.370,264.450 238.073,264.600 237.600 C 264.750 237.127,264.783 236.650,264.673 236.540 C 264.563 236.430,264.350 236.727,264.200 237.200 M52.673 240.000 C 52.804 240.990,52.976 241.875,53.056 241.967 C 53.357 242.314,53.128 239.764,52.790 239.000 C 52.553 238.466,52.514 238.798,52.673 240.000 M315.856 239.684 C 315.721 240.188,315.628 241.050,315.649 241.600 C 315.672 242.189,315.831 241.871,316.036 240.825 C 316.403 238.952,316.273 238.127,315.856 239.684 M263.400 240.000 C 263.250 240.473,263.217 240.950,263.327 241.060 C 263.437 241.170,263.650 240.873,263.800 240.400 C 263.950 239.927,263.983 239.450,263.873 239.340 C 263.763 239.230,263.550 239.527,263.400 240.000 M53.462 243.800 C 53.596 244.680,53.772 245.475,53.853 245.567 C 54.156 245.910,53.929 243.768,53.581 243.000 C 53.329 242.442,53.293 242.685,53.462 243.800 M315.056 243.684 C 314.921 244.188,314.827 244.960,314.846 245.400 C 314.865 245.840,315.045 245.498,315.246 244.640 C 315.636 242.978,315.470 242.140,315.056 243.684 M54.262 247.400 C 54.396 248.280,54.572 249.075,54.653 249.167 C 54.956 249.510,54.729 247.368,54.381 246.600 C 54.129 246.042,54.093 246.285,54.262 247.400 M314.202 247.700 C 314.058 248.415,313.855 249.360,313.751 249.800 C 313.604 250.420,313.645 250.465,313.930 250.000 C 314.349 249.316,314.932 246.400,314.650 246.400 C 314.547 246.400,314.346 246.985,314.202 247.700 M55.042 250.626 C 55.579 252.763,56.348 254.979,56.373 254.462 C 56.408 253.767,55.200 249.600,54.964 249.600 C 54.865 249.600,54.901 250.062,55.042 250.626 M313.246 251.267 C 313.221 251.634,313.096 252.264,312.970 252.667 C 312.752 253.362,312.763 253.363,313.197 252.687 C 313.448 252.296,313.573 251.666,313.473 251.287 C 313.311 250.668,313.288 250.666,313.246 251.267 M111.440 255.202 C 112.039 256.303,112.593 257.140,112.671 257.063 C 112.843 256.890,110.808 253.200,110.541 253.200 C 110.436 253.200,110.840 254.101,111.440 255.202 M257.225 254.900 C 256.437 256.467,256.432 256.522,257.164 255.600 C 257.871 254.709,258.524 253.200,258.203 253.200 C 258.136 253.200,257.696 253.965,257.225 254.900 M312.446 254.067 C 312.421 254.434,312.296 255.064,312.170 255.467 C 311.952 256.162,311.963 256.163,312.397 255.487 C 312.648 255.096,312.773 254.466,312.673 254.087 C 312.511 253.468,312.488 253.466,312.446 254.067 M56.828 256.676 C 56.813 257.158,56.980 257.664,57.200 257.800 C 57.673 258.092,57.673 257.701,57.200 256.600 C 56.869 255.829,56.855 255.831,56.828 256.676 M311.483 257.084 C 311.363 257.478,311.073 258.418,310.839 259.173 C 310.605 259.928,310.554 260.378,310.725 260.173 C 311.187 259.619,312.103 256.769,311.888 256.554 C 311.785 256.452,311.603 256.690,311.483 257.084 M255.624 257.718 C 255.323 258.203,254.815 259.005,254.493 259.500 C 254.171 259.995,253.995 260.400,254.101 260.400 C 254.383 260.400,256.486 257.153,256.315 256.981 C 256.235 256.902,255.924 257.233,255.624 257.718 M113.013 258.000 C 113.817 259.460,118.019 265.564,118.370 265.781 C 118.770 266.029,113.790 258.514,113.080 257.800 C 112.816 257.535,112.794 257.602,113.013 258.000 M252.950 261.900 C 251.556 263.814,251.450 264.251,252.731 262.800 C 253.822 261.565,254.259 260.800,253.875 260.800 C 253.807 260.800,253.390 261.295,252.950 261.900 M248.981 267.300 C 247.704 268.895,246.979 269.938,247.370 269.618 C 248.149 268.979,251.751 264.400,251.474 264.400 C 251.380 264.400,250.257 265.705,248.981 267.300 M120.400 268.525 C 120.400 268.594,120.985 269.179,121.700 269.825 L 123.000 271.000 121.825 269.700 C 120.730 268.488,120.400 268.216,120.400 268.525 M242.702 274.130 C 240.779 276.115,239.258 277.791,239.323 277.856 C 239.388 277.921,241.138 276.270,243.213 274.187 C 245.287 272.104,246.808 270.428,246.592 270.461 C 246.376 270.495,244.626 272.146,242.702 274.130 M122.800 271.310 C 122.800 271.371,124.191 272.766,125.890 274.410 L 128.981 277.400 126.190 274.350 C 123.796 271.732,122.800 270.839,122.800 271.310 M129.200 277.325 C 129.200 277.394,129.785 277.979,130.500 278.625 L 131.800 279.800 130.625 278.500 C 129.530 277.288,129.200 277.016,129.200 277.325 M237.454 279.033 C 236.823 279.587,236.387 280.120,236.483 280.216 C 236.579 280.313,237.174 279.854,237.804 279.196 C 239.196 277.743,239.016 277.659,237.454 279.033 M301.400 280.400 C 301.059 281.060,300.869 281.600,300.979 281.600 C 301.089 281.600,301.459 281.060,301.800 280.400 C 302.141 279.740,302.331 279.200,302.221 279.200 C 302.111 279.200,301.741 279.740,301.400 280.400 M67.800 281.600 C 68.141 282.260,68.511 282.800,68.621 282.800 C 68.731 282.800,68.541 282.260,68.200 281.600 C 67.859 280.940,67.489 280.400,67.379 280.400 C 67.269 280.400,67.459 280.940,67.800 281.600 M234.385 281.632 L 233.000 282.863 234.288 282.013 C 235.430 281.259,236.293 280.400,235.908 280.400 C 235.832 280.400,235.147 280.954,234.385 281.632 M134.159 281.533 C 134.314 281.784,135.269 282.560,136.282 283.257 C 137.295 283.953,137.997 284.318,137.841 284.067 C 137.686 283.816,136.731 283.040,135.718 282.343 C 134.705 281.647,134.003 281.282,134.159 281.533 M299.814 283.035 C 299.441 283.604,299.205 284.138,299.289 284.222 C 299.373 284.307,299.758 283.841,300.144 283.188 C 301.006 281.728,300.748 281.609,299.814 283.035 M69.247 284.000 C 69.937 285.489,74.961 293.194,75.244 293.197 C 75.440 293.199,72.055 287.828,69.292 283.750 C 68.863 283.117,68.856 283.156,69.247 284.000 M295.290 290.218 C 293.270 293.198,291.800 295.524,292.022 295.386 C 292.577 295.043,299.430 284.800,299.105 284.800 C 299.026 284.800,297.309 287.238,295.290 290.218 M140.200 285.796 C 141.094 286.539,143.628 287.909,143.000 287.310 C 142.780 287.100,141.880 286.524,141.000 286.030 C 140.120 285.535,139.760 285.430,140.200 285.796 M227.200 286.400 C 226.210 287.058,225.539 287.597,225.709 287.598 C 226.057 287.600,229.200 285.574,229.200 285.347 C 229.200 285.092,229.042 285.175,227.200 286.400 M143.600 287.788 C 143.600 287.898,144.680 288.534,146.000 289.200 C 147.320 289.866,148.400 290.322,148.400 290.212 C 148.400 290.102,147.320 289.466,146.000 288.800 C 144.680 288.134,143.600 287.678,143.600 287.788 M148.854 290.587 C 149.167 290.900,152.000 292.023,152.000 291.835 C 152.000 291.591,149.569 290.400,149.072 290.400 C 148.849 290.400,148.751 290.484,148.854 290.587 M157.000 294.000 C 158.101 294.473,158.492 294.473,158.200 294.000 C 158.064 293.780,157.558 293.613,157.076 293.628 C 156.231 293.655,156.229 293.669,157.000 294.000 M78.621 297.800 C 79.433 298.790,80.170 299.600,80.261 299.600 C 80.574 299.600,77.799 296.031,77.473 296.016 C 77.293 296.007,77.810 296.810,78.621 297.800 M165.400 296.400 C 166.596 296.914,167.595 296.914,166.800 296.400 C 166.470 296.187,165.840 296.022,165.400 296.034 L 164.600 296.056 165.400 296.400 M202.400 296.400 C 201.605 296.914,202.604 296.914,203.800 296.400 L 204.600 296.056 203.800 296.034 C 203.360 296.022,202.730 296.187,202.400 296.400 M288.165 299.900 C 286.448 302.045,282.514 306.365,279.422 309.501 C 276.330 312.637,273.896 315.202,274.014 315.201 C 274.637 315.198,285.811 303.438,289.028 299.400 C 291.478 296.324,291.713 296.000,291.493 296.000 C 291.380 296.000,289.882 297.755,288.165 299.900 M169.200 297.200 C 170.568 297.638,171.619 297.638,170.600 297.200 C 170.160 297.011,169.440 296.862,169.000 296.868 C 168.357 296.877,168.396 296.943,169.200 297.200 M198.200 297.200 L 197.400 297.544 198.200 297.532 C 198.640 297.526,199.450 297.376,200.000 297.200 L 201.000 296.880 200.000 296.868 C 199.450 296.862,198.640 297.011,198.200 297.200 M174.400 298.020 C 175.390 298.197,176.830 298.330,177.600 298.317 C 178.745 298.297,178.635 298.236,177.000 297.982 C 174.253 297.554,171.969 297.588,174.400 298.020 M191.600 298.000 C 189.963 298.254,189.927 298.283,191.200 298.310 C 191.970 298.327,193.410 298.197,194.400 298.020 C 196.797 297.594,194.328 297.576,191.600 298.000 M81.201 301.000 C 81.751 301.660,82.245 302.275,82.300 302.367 C 82.355 302.458,82.488 302.445,82.596 302.338 C 82.704 302.230,82.209 301.615,81.497 300.971 L 80.203 299.800 81.201 301.000 M84.698 305.000 C 85.822 306.320,88.233 308.840,90.057 310.600 C 92.600 313.053,92.310 312.679,88.817 309.000 C 82.800 302.663,82.272 302.150,84.698 305.000 M96.309 316.484 C 99.365 319.206,100.045 319.591,97.422 317.113 C 96.090 315.856,94.869 314.821,94.709 314.813 C 94.549 314.806,95.269 315.558,96.309 316.484 M272.162 316.444 C 271.743 316.908,269.915 318.447,268.100 319.865 C 266.285 321.283,264.800 322.546,264.800 322.671 C 264.800 322.914,265.094 322.703,268.200 320.228 C 271.114 317.906,273.632 315.600,273.253 315.600 C 273.072 315.600,272.581 315.980,272.162 316.444 M100.400 319.739 C 100.400 319.830,101.210 320.567,102.200 321.379 C 103.190 322.190,103.993 322.707,103.984 322.527 C 103.969 322.201,100.400 319.426,100.400 319.739 M262.000 324.442 C 258.864 326.732,258.558 327.208,261.475 325.258 C 262.837 324.348,264.062 323.423,264.199 323.202 C 264.574 322.594,264.382 322.703,262.000 324.442 M106.989 324.781 C 107.312 325.305,113.216 329.323,113.384 329.134 C 113.450 329.060,111.977 327.954,110.113 326.675 C 108.248 325.396,106.842 324.544,106.989 324.781 M257.400 327.621 C 256.740 328.069,254.985 329.156,253.500 330.036 C 252.015 330.915,250.800 331.732,250.800 331.850 C 250.800 331.969,251.475 331.665,252.300 331.176 C 255.040 329.551,258.800 327.108,258.800 326.953 C 258.800 326.700,258.651 326.771,257.400 327.621 M114.185 329.576 C 114.651 330.329,127.200 337.110,127.200 336.608 C 127.200 336.498,125.594 335.602,123.631 334.616 C 121.669 333.630,118.691 332.012,117.013 331.021 C 115.336 330.029,114.063 329.379,114.185 329.576 M248.300 333.026 C 247.255 333.570,246.400 334.105,246.400 334.214 C 246.400 334.324,247.300 333.957,248.400 333.400 C 249.500 332.843,250.400 332.300,250.400 332.193 C 250.400 331.929,250.436 331.914,248.300 333.026 M130.800 338.400 C 131.570 338.822,132.380 339.166,132.600 339.166 C 132.820 339.166,132.370 338.822,131.600 338.400 C 130.830 337.978,130.020 337.634,129.800 337.634 C 129.580 337.634,130.030 337.978,130.800 338.400 M223.200 343.600 C 222.376 343.864,222.341 343.926,223.000 343.954 C 223.440 343.973,224.070 343.813,224.400 343.600 C 225.101 343.147,224.614 343.147,223.200 343.600 M147.200 344.155 C 147.200 344.501,151.552 345.682,152.067 345.476 C 152.360 345.359,152.183 345.249,151.674 345.232 C 151.164 345.214,150.444 345.045,150.074 344.855 C 149.226 344.421,147.200 343.928,147.200 344.155 M220.400 344.400 C 219.576 344.664,219.541 344.726,220.200 344.754 C 220.640 344.773,221.270 344.613,221.600 344.400 C 222.301 343.947,221.814 343.947,220.400 344.400 M217.024 345.250 C 216.157 345.453,215.347 345.721,215.224 345.845 C 214.901 346.171,218.086 345.562,218.800 345.161 C 219.539 344.746,219.072 344.770,217.024 345.250 M153.400 345.981 C 154.168 346.329,156.310 346.556,155.967 346.253 C 155.875 346.172,155.080 345.996,154.200 345.862 C 153.085 345.693,152.842 345.729,153.400 345.981 M212.200 346.419 C 211.642 346.671,211.885 346.707,213.000 346.538 C 213.880 346.404,214.675 346.228,214.767 346.147 C 215.110 345.844,212.968 346.071,212.200 346.419 M157.633 346.944 C 157.725 347.023,158.700 347.191,159.800 347.318 C 161.087 347.467,161.515 347.426,161.000 347.203 C 160.236 346.872,157.286 346.645,157.633 346.944 M208.000 347.200 C 207.450 347.376,206.370 347.565,205.600 347.620 C 204.525 347.697,204.432 347.754,205.200 347.866 C 205.750 347.947,207.370 347.754,208.800 347.438 C 210.230 347.122,210.860 346.867,210.200 346.872 C 209.540 346.876,208.550 347.024,208.000 347.200 M162.500 347.876 C 162.885 347.976,163.515 347.976,163.900 347.876 C 164.285 347.775,163.970 347.693,163.200 347.693 C 162.430 347.693,162.115 347.775,162.500 347.876 M165.300 348.276 C 165.685 348.376,166.315 348.376,166.700 348.276 C 167.085 348.175,166.770 348.093,166.000 348.093 C 165.230 348.093,164.915 348.175,165.300 348.276 M202.100 348.276 C 202.485 348.376,203.115 348.376,203.500 348.276 C 203.885 348.175,203.570 348.093,202.800 348.093 C 202.030 348.093,201.715 348.175,202.100 348.276 M169.800 348.818 C 170.900 348.990,172.520 349.122,173.400 349.112 C 174.951 349.094,174.939 349.084,173.000 348.782 C 171.900 348.610,170.280 348.478,169.400 348.488 C 167.849 348.506,167.861 348.516,169.800 348.818 M195.800 348.800 C 193.900 349.061,193.880 349.075,195.400 349.098 C 196.280 349.110,197.990 348.984,199.200 348.817 C 201.366 348.517,201.372 348.513,199.600 348.519 C 198.610 348.523,196.900 348.649,195.800 348.800 M180.100 349.498 C 182.465 349.569,186.335 349.569,188.700 349.498 C 191.065 349.428,189.130 349.370,184.400 349.370 C 179.670 349.370,177.735 349.428,180.100 349.498 " stroke="none" fill="#ec9494" fill-rule="evenodd"></path><path id="path4" d="M383.200 8.000 C 383.200 8.220,382.917 8.400,382.571 8.400 C 381.827 8.400,374.800 15.300,374.800 16.031 C 374.800 16.307,374.692 16.425,374.560 16.293 C 374.280 16.013,371.008 19.282,370.660 20.188 C 370.531 20.525,370.266 20.800,370.071 20.800 C 369.876 20.800,368.883 21.610,367.864 22.600 C 366.845 23.590,366.113 24.400,366.237 24.400 C 366.360 24.400,365.863 24.891,365.131 25.492 C 363.209 27.069,362.400 28.035,362.400 28.753 C 362.400 29.740,314.773 77.200,313.783 77.200 C 312.745 77.200,310.400 79.574,310.400 80.625 C 310.400 81.557,275.086 117.024,274.511 116.669 C 274.307 116.543,274.154 116.794,274.170 117.227 C 274.206 118.164,240.232 152.400,239.267 152.400 C 238.929 152.400,238.190 151.995,237.626 151.500 L 236.600 150.600 237.500 151.626 C 237.995 152.190,238.400 152.821,238.400 153.027 C 238.400 153.414,203.167 188.800,202.782 188.800 C 202.269 188.800,179.731 211.732,179.100 212.897 C 176.519 217.656,181.669 223.240,186.702 221.141 C 187.444 220.832,193.006 215.596,199.699 208.906 C 206.135 202.475,219.407 189.200,229.194 179.406 C 238.980 169.613,247.107 161.600,247.252 161.600 C 247.398 161.600,248.273 162.455,249.198 163.500 C 250.807 165.319,250.824 165.327,249.610 163.706 C 248.912 162.774,248.175 161.908,247.971 161.782 C 247.767 161.656,247.600 161.246,247.600 160.872 C 247.600 159.819,282.203 125.439,282.967 125.732 C 283.310 125.864,283.548 125.823,283.495 125.642 C 283.302 124.976,318.165 90.011,319.445 89.587 C 320.881 89.111,323.050 86.864,322.865 86.045 C 322.689 85.265,368.998 38.950,370.984 37.919 C 372.708 37.025,391.025 18.959,391.882 17.308 C 392.433 16.244,392.524 11.200,391.992 11.200 C 391.824 11.200,391.570 10.734,391.427 10.164 C 391.248 9.454,390.976 9.200,390.562 9.359 C 390.230 9.487,390.060 9.427,390.183 9.227 C 390.307 9.027,389.839 8.579,389.143 8.231 C 387.744 7.534,383.200 7.357,383.200 8.000 M179.500 82.299 C 182.195 82.368,186.605 82.368,189.300 82.299 C 191.995 82.230,189.790 82.173,184.400 82.173 C 179.010 82.173,176.805 82.230,179.500 82.299 M171.900 82.682 C 172.395 82.778,173.205 82.778,173.700 82.682 C 174.195 82.587,173.790 82.509,172.800 82.509 C 171.810 82.509,171.405 82.587,171.900 82.682 M195.100 82.682 C 195.595 82.778,196.405 82.778,196.900 82.682 C 197.395 82.587,196.990 82.509,196.000 82.509 C 195.010 82.509,194.605 82.587,195.100 82.682 M167.905 83.083 C 168.402 83.179,169.122 83.175,169.505 83.075 C 169.887 82.975,169.480 82.896,168.600 82.901 C 167.720 82.905,167.407 82.987,167.905 83.083 M199.500 83.082 C 199.995 83.178,200.805 83.178,201.300 83.082 C 201.795 82.987,201.390 82.909,200.400 82.909 C 199.410 82.909,199.005 82.987,199.500 83.082 M164.900 83.476 C 165.285 83.576,165.915 83.576,166.300 83.476 C 166.685 83.375,166.370 83.293,165.600 83.293 C 164.830 83.293,164.515 83.375,164.900 83.476 M161.000 84.000 C 159.981 84.438,161.032 84.438,162.400 84.000 C 163.204 83.743,163.243 83.677,162.600 83.668 C 162.160 83.662,161.440 83.811,161.000 84.000 M205.633 83.747 C 205.725 83.828,206.520 84.004,207.400 84.138 C 208.515 84.307,208.758 84.271,208.200 84.019 C 207.432 83.671,205.290 83.444,205.633 83.747 M156.600 84.800 C 155.581 85.238,156.632 85.238,158.000 84.800 C 158.804 84.543,158.843 84.477,158.200 84.468 C 157.760 84.462,157.040 84.611,156.600 84.800 M210.800 84.800 C 212.168 85.238,213.219 85.238,212.200 84.800 C 211.760 84.611,211.040 84.462,210.600 84.468 C 209.957 84.477,209.996 84.543,210.800 84.800 M153.200 85.600 C 152.396 85.857,152.357 85.923,153.000 85.932 C 153.440 85.938,154.160 85.789,154.600 85.600 C 155.619 85.162,154.568 85.162,153.200 85.600 M214.600 85.600 C 215.040 85.789,215.670 85.944,216.000 85.944 C 216.378 85.944,216.304 85.817,215.800 85.600 C 215.360 85.411,214.730 85.256,214.400 85.256 C 214.022 85.256,214.096 85.383,214.600 85.600 M147.200 87.200 C 146.667 87.545,146.667 87.588,147.200 87.588 C 147.530 87.588,148.070 87.413,148.400 87.200 C 148.933 86.855,148.933 86.812,148.400 86.812 C 148.070 86.812,147.530 86.987,147.200 87.200 M248.800 98.579 C 248.800 98.689,249.340 99.059,250.000 99.400 C 250.660 99.741,251.200 99.931,251.200 99.821 C 251.200 99.711,250.660 99.341,250.000 99.000 C 249.340 98.659,248.800 98.469,248.800 98.579 M117.500 99.829 C 116.005 100.640,116.096 100.978,117.600 100.200 C 118.260 99.859,118.800 99.494,118.800 99.390 C 118.800 99.132,118.757 99.147,117.500 99.829 M253.200 101.220 C 254.587 102.161,255.378 102.435,254.400 101.636 C 253.850 101.186,253.220 100.817,253.000 100.815 C 252.780 100.813,252.870 100.996,253.200 101.220 M261.600 106.527 C 261.600 106.712,265.572 109.810,266.986 110.729 C 267.434 111.020,267.203 110.727,266.474 110.078 C 264.904 108.682,261.600 106.274,261.600 106.527 M103.687 109.100 C 102.730 110.035,102.714 110.081,103.581 109.406 C 105.288 108.076,105.369 108.000,105.086 108.000 C 104.936 108.000,104.306 108.495,103.687 109.100 M99.853 112.014 C 98.782 112.886,98.062 113.595,98.253 113.588 C 98.614 113.576,102.352 110.422,102.000 110.426 C 101.890 110.427,100.924 111.142,99.853 112.014 M271.200 114.200 C 271.946 114.970,272.647 115.600,272.757 115.600 C 272.867 115.600,272.346 114.970,271.600 114.200 C 270.854 113.430,270.153 112.800,270.043 112.800 C 269.933 112.800,270.454 113.430,271.200 114.200 M96.175 115.300 L 95.000 116.600 96.398 115.400 C 97.167 114.740,97.872 114.155,97.965 114.100 C 98.057 114.045,97.957 114.000,97.742 114.000 C 97.526 114.000,96.821 114.585,96.175 115.300 M89.800 121.200 C 87.167 123.840,85.103 126.000,85.213 126.000 C 85.323 126.000,87.567 123.840,90.200 121.200 C 92.833 118.560,94.897 116.400,94.787 116.400 C 94.677 116.400,92.433 118.560,89.800 121.200 M83.804 127.596 C 83.174 128.254,82.735 128.856,82.829 128.934 C 82.923 129.012,83.513 128.474,84.139 127.738 C 85.554 126.077,85.345 125.988,83.804 127.596 M285.600 128.600 C 286.346 129.370,287.047 130.000,287.157 130.000 C 287.267 130.000,286.746 129.370,286.000 128.600 C 285.254 127.830,284.553 127.200,284.443 127.200 C 284.333 127.200,284.854 127.830,285.600 128.600 M80.671 131.246 C 79.830 132.320,79.223 133.200,79.323 133.200 C 79.605 133.200,82.508 129.573,82.345 129.424 C 82.265 129.351,81.512 130.171,80.671 131.246 M181.500 132.697 C 183.095 132.773,185.705 132.773,187.300 132.697 C 188.895 132.621,187.590 132.559,184.400 132.559 C 181.210 132.559,179.905 132.621,181.500 132.697 M289.046 132.823 C 289.291 133.140,290.339 134.525,291.375 135.900 C 292.410 137.275,293.336 138.400,293.433 138.400 C 293.719 138.400,289.589 132.840,289.073 132.530 C 288.718 132.317,288.712 132.391,289.046 132.823 M172.200 133.200 C 170.537 133.623,172.174 133.642,174.200 133.223 C 175.545 132.945,175.609 132.892,174.600 132.893 C 173.940 132.894,172.860 133.032,172.200 133.200 M193.700 133.076 C 194.085 133.176,194.715 133.176,195.100 133.076 C 195.485 132.975,195.170 132.893,194.400 132.893 C 193.630 132.893,193.315 132.975,193.700 133.076 M167.600 134.000 C 166.796 134.257,166.757 134.323,167.400 134.332 C 167.840 134.338,168.560 134.189,169.000 134.000 C 170.019 133.562,168.968 133.562,167.600 134.000 M199.800 134.000 C 200.240 134.189,200.960 134.338,201.400 134.332 C 202.043 134.323,202.004 134.257,201.200 134.000 C 199.832 133.562,198.781 133.562,199.800 134.000 M164.200 134.800 C 163.696 135.017,163.622 135.144,164.000 135.144 C 164.330 135.144,164.960 134.989,165.400 134.800 C 165.904 134.583,165.978 134.456,165.600 134.456 C 165.270 134.456,164.640 134.611,164.200 134.800 M76.384 136.823 C 75.905 137.496,75.579 138.113,75.661 138.194 C 75.743 138.276,76.214 137.726,76.708 136.971 C 77.823 135.271,77.571 135.156,76.384 136.823 M215.158 138.437 C 216.125 138.866,216.988 139.145,217.075 139.058 C 217.248 138.886,214.165 137.582,213.692 137.628 C 213.531 137.644,214.191 138.008,215.158 138.437 M71.152 144.500 C 70.890 144.995,70.415 145.850,70.096 146.400 C 69.539 147.359,69.543 147.367,70.188 146.600 C 70.986 145.652,72.105 143.600,71.824 143.600 C 71.716 143.600,71.414 144.005,71.152 144.500 M228.844 145.377 C 229.442 145.975,231.999 147.526,231.995 147.288 C 231.990 146.977,229.388 145.200,228.939 145.200 C 228.789 145.200,228.746 145.280,228.844 145.377 M300.600 150.000 C 300.941 150.660,301.311 151.200,301.421 151.200 C 301.531 151.200,301.341 150.660,301.000 150.000 C 300.659 149.340,300.289 148.800,300.179 148.800 C 300.069 148.800,300.259 149.340,300.600 150.000 M130.776 152.031 L 128.600 154.061 130.900 152.154 C 133.011 150.404,133.419 150.000,133.076 150.000 C 133.008 150.000,131.973 150.914,130.776 152.031 M66.600 152.400 C 66.043 153.500,65.677 154.400,65.787 154.400 C 65.897 154.400,66.443 153.500,67.000 152.400 C 67.557 151.300,67.923 150.400,67.813 150.400 C 67.703 150.400,67.157 151.300,66.600 152.400 M125.389 156.900 L 122.600 159.800 125.500 157.011 C 128.194 154.420,128.583 154.000,128.289 154.000 C 128.228 154.000,126.923 155.305,125.389 156.900 M62.865 159.817 C 62.195 161.288,62.323 161.602,63.047 160.265 C 63.386 159.640,63.588 159.054,63.496 158.963 C 63.405 158.871,63.121 159.256,62.865 159.817 M306.028 160.600 C 306.028 160.820,306.286 161.450,306.600 162.000 C 306.914 162.550,307.172 162.820,307.172 162.600 C 307.172 162.380,306.914 161.750,306.600 161.200 C 306.286 160.650,306.028 160.380,306.028 160.600 M118.671 164.446 C 117.830 165.520,117.223 166.400,117.323 166.400 C 117.605 166.400,120.508 162.773,120.345 162.624 C 120.265 162.551,119.512 163.371,118.671 164.446 M252.623 168.300 C 254.679 171.305,255.157 171.876,254.401 170.427 C 253.767 169.210,251.186 165.600,250.950 165.600 C 250.854 165.600,251.607 166.815,252.623 168.300 M55.000 181.600 C 54.850 182.073,54.817 182.550,54.927 182.660 C 55.037 182.770,55.250 182.473,55.400 182.000 C 55.550 181.527,55.583 181.050,55.473 180.940 C 55.363 180.830,55.150 181.127,55.000 181.600 M261.239 184.100 C 262.115 186.323,262.702 187.258,262.202 185.635 C 261.725 184.087,260.806 182.000,260.600 182.000 C 260.497 182.000,260.784 182.945,261.239 184.100 M314.056 184.000 C 314.056 184.330,314.211 184.960,314.400 185.400 C 314.617 185.904,314.744 185.978,314.744 185.600 C 314.744 185.270,314.589 184.640,314.400 184.200 C 314.183 183.696,314.056 183.622,314.056 184.000 M314.856 187.600 C 314.856 187.930,315.011 188.560,315.200 189.000 C 315.417 189.504,315.544 189.578,315.544 189.200 C 315.544 188.870,315.389 188.240,315.200 187.800 C 314.983 187.296,314.856 187.222,314.856 187.600 M53.429 188.629 C 53.281 189.215,53.238 189.772,53.332 189.866 C 53.427 189.960,53.624 189.558,53.771 188.971 C 53.919 188.385,53.962 187.828,53.868 187.734 C 53.773 187.640,53.576 188.042,53.429 188.629 M264.006 191.833 C 264.009 192.255,264.195 192.870,264.418 193.200 C 264.715 193.638,264.752 193.476,264.556 192.600 C 264.227 191.129,263.998 190.810,264.006 191.833 M315.668 191.600 C 315.688 192.639,316.318 194.346,316.332 193.400 C 316.338 192.960,316.189 192.240,316.000 191.800 C 315.789 191.310,315.661 191.232,315.668 191.600 M52.600 192.800 C 52.448 193.491,52.414 194.147,52.524 194.257 C 52.634 194.367,52.848 193.891,53.000 193.200 C 53.152 192.509,53.186 191.853,53.076 191.743 C 52.966 191.633,52.752 192.109,52.600 192.800 M51.815 198.215 C 51.661 199.454,51.617 200.550,51.719 200.652 C 51.820 200.754,52.030 199.823,52.185 198.585 C 52.339 197.346,52.383 196.250,52.281 196.148 C 52.180 196.046,51.970 196.977,51.815 198.215 M266.493 202.800 C 266.493 203.570,266.575 203.885,266.676 203.500 C 266.776 203.115,266.776 202.485,266.676 202.100 C 266.575 201.715,266.493 202.030,266.493 202.800 M102.093 203.200 C 102.093 203.970,102.175 204.285,102.276 203.900 C 102.376 203.515,102.376 202.885,102.276 202.500 C 102.175 202.115,102.093 202.430,102.093 203.200 M317.309 203.600 C 317.309 204.590,317.387 204.995,317.482 204.500 C 317.578 204.005,317.578 203.195,317.482 202.700 C 317.387 202.205,317.309 202.610,317.309 203.600 M51.067 205.560 C 50.920 206.967,50.826 209.216,50.857 210.559 C 50.897 212.280,51.013 211.644,51.250 208.400 C 51.618 203.374,51.495 201.469,51.067 205.560 M101.693 206.000 C 101.693 206.770,101.775 207.085,101.876 206.700 C 101.976 206.315,101.976 205.685,101.876 205.300 C 101.775 204.915,101.693 205.230,101.693 206.000 M317.714 207.400 C 317.717 208.500,317.795 208.903,317.887 208.295 C 317.979 207.686,317.977 206.786,317.882 206.295 C 317.787 205.803,317.711 206.300,317.714 207.400 M267.334 212.000 C 267.334 213.650,267.405 214.325,267.491 213.500 C 267.578 212.675,267.578 211.325,267.491 210.500 C 267.405 209.675,267.334 210.350,267.334 212.000 M101.359 215.600 C 101.359 218.790,101.421 220.095,101.497 218.500 C 101.573 216.905,101.573 214.295,101.497 212.700 C 101.421 211.105,101.359 212.410,101.359 215.600 M267.334 219.200 C 267.334 220.850,267.405 221.525,267.491 220.700 C 267.578 219.875,267.578 218.525,267.491 217.700 C 267.405 216.875,267.334 217.550,267.334 219.200 M50.835 221.233 C 50.854 222.865,51.012 225.100,51.185 226.200 C 51.383 227.458,51.424 226.419,51.295 223.400 C 51.064 218.020,50.781 216.687,50.835 221.233 M317.720 223.600 C 317.720 224.810,317.795 225.305,317.887 224.700 C 317.978 224.095,317.978 223.105,317.887 222.500 C 317.795 221.895,317.720 222.390,317.720 223.600 M317.309 227.600 C 317.309 228.590,317.387 228.995,317.482 228.500 C 317.578 228.005,317.578 227.195,317.482 226.700 C 317.387 226.205,317.309 226.610,317.309 227.600 M102.093 228.000 C 102.093 228.770,102.175 229.085,102.276 228.700 C 102.376 228.315,102.376 227.685,102.276 227.300 C 102.175 226.915,102.093 227.230,102.093 228.000 M266.493 228.400 C 266.493 229.170,266.575 229.485,266.676 229.100 C 266.776 228.715,266.776 228.085,266.676 227.700 C 266.575 227.315,266.493 227.630,266.493 228.400 M51.669 231.200 C 51.656 231.750,51.795 232.920,51.977 233.800 C 52.189 234.826,52.316 235.041,52.331 234.400 C 52.344 233.850,52.205 232.680,52.023 231.800 C 51.811 230.774,51.684 230.559,51.669 231.200 M52.456 237.400 C 52.456 237.840,52.611 238.560,52.800 239.000 L 53.144 239.800 53.144 239.000 C 53.144 238.560,52.989 237.840,52.800 237.400 L 52.456 236.600 52.456 237.400 M315.850 238.450 C 315.709 239.153,315.669 239.802,315.759 239.892 C 315.850 239.983,316.048 239.491,316.200 238.800 C 316.352 238.109,316.393 237.459,316.291 237.358 C 316.189 237.256,315.991 237.747,315.850 238.450 M264.249 238.215 C 264.112 238.573,264.015 239.166,264.034 239.533 C 264.053 239.900,264.227 239.669,264.421 239.020 C 264.798 237.758,264.665 237.133,264.249 238.215 M53.256 241.600 C 53.256 241.930,53.411 242.560,53.600 243.000 C 53.817 243.504,53.944 243.578,53.944 243.200 C 53.944 242.870,53.789 242.240,53.600 241.800 C 53.383 241.296,53.256 241.222,53.256 241.600 M315.029 242.629 C 314.881 243.215,314.838 243.772,314.932 243.866 C 315.027 243.960,315.224 243.558,315.371 242.971 C 315.519 242.385,315.562 241.828,315.468 241.734 C 315.373 241.640,315.176 242.042,315.029 242.629 M262.000 244.919 C 262.000 245.057,261.627 246.122,261.171 247.285 C 260.716 248.448,260.509 249.220,260.711 249.000 C 261.270 248.393,262.464 245.130,262.217 244.883 C 262.098 244.764,262.000 244.780,262.000 244.919 M314.229 246.229 C 314.081 246.815,314.038 247.372,314.132 247.466 C 314.227 247.560,314.424 247.158,314.571 246.571 C 314.719 245.985,314.762 245.428,314.668 245.334 C 314.573 245.240,314.376 245.642,314.229 246.229 M54.812 248.800 C 54.812 249.130,54.987 249.670,55.200 250.000 C 55.545 250.533,55.588 250.533,55.588 250.000 C 55.588 249.670,55.413 249.130,55.200 248.800 C 54.855 248.267,54.812 248.267,54.812 248.800 M253.144 262.300 C 251.993 263.689,251.506 264.400,251.704 264.400 C 251.814 264.400,252.386 263.770,252.973 263.000 C 254.063 261.571,254.195 261.032,253.144 262.300 M119.017 267.181 C 121.756 270.666,126.494 275.677,128.900 277.632 C 130.055 278.570,129.455 277.880,127.568 276.099 C 125.680 274.317,122.637 271.046,120.805 268.830 C 117.167 264.428,116.030 263.379,119.017 267.181 M250.175 266.268 C 249.559 267.076,249.259 267.611,249.509 267.456 C 250.021 267.140,251.753 264.800,251.475 264.800 C 251.376 264.800,250.791 265.461,250.175 266.268 M243.104 274.072 C 239.861 277.370,238.061 279.346,239.104 278.463 C 240.865 276.974,245.468 272.328,248.184 269.300 C 250.675 266.523,248.751 268.330,243.104 274.072 M306.465 269.417 C 305.795 270.888,305.923 271.202,306.647 269.865 C 306.986 269.240,307.188 268.654,307.096 268.563 C 307.005 268.471,306.721 268.856,306.465 269.417 M62.428 270.200 C 62.428 270.420,62.686 271.050,63.000 271.600 C 63.314 272.150,63.572 272.420,63.572 272.200 C 63.572 271.980,63.314 271.350,63.000 270.800 C 62.686 270.250,62.428 269.980,62.428 270.200 M66.600 278.800 C 67.157 279.900,67.703 280.800,67.813 280.800 C 67.923 280.800,67.557 279.900,67.000 278.800 C 66.443 277.700,65.897 276.800,65.787 276.800 C 65.677 276.800,66.043 277.700,66.600 278.800 M132.469 280.676 C 134.713 282.489,135.117 282.675,133.418 281.112 C 132.528 280.294,131.651 279.619,131.469 279.612 C 131.287 279.605,131.737 280.084,132.469 280.676 M300.600 281.200 C 300.259 281.860,300.069 282.400,300.179 282.400 C 300.289 282.400,300.659 281.860,301.000 281.200 C 301.341 280.540,301.531 280.000,301.421 280.000 C 301.311 280.000,300.941 280.540,300.600 281.200 M231.600 283.858 C 228.661 285.908,228.164 286.335,229.573 285.601 C 231.358 284.670,235.082 281.851,234.300 282.022 C 234.245 282.034,233.030 282.860,231.600 283.858 M137.069 284.032 C 137.566 284.633,140.000 286.164,140.000 285.876 C 140.000 285.783,139.235 285.202,138.300 284.585 C 137.365 283.968,136.811 283.720,137.069 284.032 M70.430 285.400 C 70.924 286.280,71.500 287.180,71.710 287.400 C 72.309 288.028,70.939 285.494,70.196 284.600 C 69.830 284.160,69.935 284.520,70.430 285.400 M159.600 295.182 C 159.930 295.405,160.545 295.591,160.967 295.594 C 161.990 295.602,161.671 295.373,160.200 295.044 C 159.324 294.848,159.162 294.885,159.600 295.182 M208.000 295.200 C 207.176 295.464,207.141 295.526,207.800 295.554 C 208.240 295.573,208.870 295.413,209.200 295.200 C 209.901 294.747,209.414 294.747,208.000 295.200 M290.986 295.778 C 290.774 296.075,290.183 296.876,289.673 297.559 C 289.163 298.241,288.818 298.800,288.906 298.800 C 289.189 298.800,291.686 295.553,291.526 295.393 C 291.441 295.308,291.198 295.481,290.986 295.778 M205.200 296.000 C 204.376 296.264,204.341 296.326,205.000 296.354 C 205.440 296.373,206.070 296.213,206.400 296.000 C 207.101 295.547,206.614 295.547,205.200 296.000 M170.900 297.876 C 171.285 297.976,171.915 297.976,172.300 297.876 C 172.685 297.775,172.370 297.693,171.600 297.693 C 170.830 297.693,170.515 297.775,170.900 297.876 M196.500 297.876 C 196.885 297.976,197.515 297.976,197.900 297.876 C 198.285 297.775,197.970 297.693,197.200 297.693 C 196.430 297.693,196.115 297.775,196.500 297.876 M80.338 299.500 C 81.001 300.325,82.380 301.900,83.403 303.000 C 84.425 304.100,83.956 303.425,82.360 301.500 C 80.764 299.575,79.385 298.000,79.296 298.000 C 79.206 298.000,79.675 298.675,80.338 299.500 M180.700 298.698 C 182.735 298.771,186.065 298.771,188.100 298.698 C 190.135 298.625,188.470 298.566,184.400 298.566 C 180.330 298.566,178.665 298.625,180.700 298.698 M285.375 302.900 L 284.200 304.200 285.500 303.025 C 286.215 302.379,286.800 301.794,286.800 301.725 C 286.800 301.416,286.470 301.688,285.375 302.900 M89.800 310.000 C 92.433 312.640,94.677 314.800,94.787 314.800 C 94.897 314.800,92.833 312.640,90.200 310.000 C 87.567 307.360,85.323 305.200,85.213 305.200 C 85.103 305.200,87.167 307.360,89.800 310.000 M281.186 307.500 L 279.000 309.800 281.300 307.614 C 283.437 305.582,283.783 305.200,283.486 305.200 C 283.424 305.200,282.389 306.235,281.186 307.500 M276.187 312.500 L 273.800 315.000 276.300 312.613 C 277.675 311.299,278.800 310.174,278.800 310.113 C 278.800 309.817,278.405 310.178,276.187 312.500 M97.000 316.597 C 99.261 318.700,102.000 320.949,102.000 320.704 C 102.000 320.615,100.425 319.236,98.500 317.640 C 96.575 316.044,95.900 315.575,97.000 316.597 M270.400 317.670 C 268.868 319.088,268.686 319.339,269.800 318.497 C 271.284 317.376,273.134 315.578,272.762 315.617 C 272.673 315.627,271.610 316.551,270.400 317.670 M265.072 321.774 C 261.677 324.415,260.734 325.373,263.400 323.473 C 265.543 321.946,268.329 319.626,268.000 319.642 C 267.890 319.648,266.573 320.607,265.072 321.774 M105.286 323.400 C 106.095 323.950,106.899 324.400,107.072 324.400 C 107.244 324.400,106.723 323.950,105.914 323.400 C 105.105 322.850,104.301 322.400,104.128 322.400 C 103.956 322.400,104.477 322.850,105.286 323.400 M114.000 329.220 C 115.387 330.161,116.178 330.435,115.200 329.636 C 114.650 329.186,114.020 328.817,113.800 328.815 C 113.580 328.813,113.670 328.996,114.000 329.220 M249.900 331.829 C 248.405 332.640,248.496 332.978,250.000 332.200 C 250.660 331.859,251.200 331.494,251.200 331.390 C 251.200 331.132,251.157 331.147,249.900 331.829 M238.000 337.800 C 237.450 338.114,237.180 338.372,237.400 338.372 C 237.620 338.372,238.250 338.114,238.800 337.800 C 239.350 337.486,239.620 337.228,239.400 337.228 C 239.180 337.228,238.550 337.486,238.000 337.800 M134.833 339.735 C 135.219 340.047,138.400 341.177,138.400 341.002 C 138.400 340.763,135.651 339.600,135.084 339.600 C 134.855 339.600,134.742 339.661,134.833 339.735 M152.433 345.344 C 152.525 345.423,153.140 345.608,153.800 345.756 C 154.676 345.952,154.838 345.915,154.400 345.618 C 153.860 345.253,152.032 344.998,152.433 345.344 M156.600 346.400 C 157.796 346.914,158.795 346.914,158.000 346.400 C 157.670 346.187,157.040 346.022,156.600 346.034 L 155.800 346.056 156.600 346.400 M211.000 346.400 C 210.496 346.617,210.422 346.744,210.800 346.744 C 211.130 346.744,211.760 346.589,212.200 346.400 C 212.704 346.183,212.778 346.056,212.400 346.056 C 212.070 346.056,211.440 346.211,211.000 346.400 M161.000 347.200 C 161.440 347.389,162.160 347.544,162.600 347.544 L 163.400 347.544 162.600 347.200 C 162.160 347.011,161.440 346.856,161.000 346.856 L 160.200 346.856 161.000 347.200 M206.800 347.218 C 206.362 347.515,206.524 347.552,207.400 347.356 C 208.871 347.027,209.190 346.798,208.167 346.806 C 207.745 346.809,207.130 346.995,206.800 347.218 M164.900 347.876 C 165.285 347.976,165.915 347.976,166.300 347.876 C 166.685 347.775,166.370 347.693,165.600 347.693 C 164.830 347.693,164.515 347.775,164.900 347.876 M202.500 347.876 C 202.885 347.976,203.515 347.976,203.900 347.876 C 204.285 347.775,203.970 347.693,203.200 347.693 C 202.430 347.693,202.115 347.775,202.500 347.876 M173.400 348.818 C 174.500 348.990,176.120 349.120,177.000 349.109 C 178.393 349.090,178.316 349.048,176.400 348.783 C 175.190 348.616,173.570 348.485,172.800 348.493 C 171.678 348.504,171.797 348.569,173.400 348.818 M192.000 348.800 L 190.200 349.080 191.800 349.100 C 192.680 349.112,194.390 348.984,195.600 348.817 L 197.800 348.513 195.800 348.516 C 194.700 348.518,192.990 348.646,192.000 348.800 " stroke="none" fill="#e39c9c" fill-rule="evenodd"></path></g></svg>